<?xml version="1.0" standalone="no"?>
<!DOCTYPE svg PUBLIC "-//W3C//DTD SVG 20010904//EN"
 "http://www.w3.org/TR/2001/REC-SVG-20010904/DTD/svg10.dtd">
<svg version="1.0" xmlns="http://www.w3.org/2000/svg"
 width="4794.000000pt" height="6204.000000pt" viewBox="0 0 4794.000000 6204.000000"
 preserveAspectRatio="xMidYMid meet">
<metadata>
Created by potrace 1.15, written by Peter Selinger 2001-2017
</metadata>
<g transform="translate(0.000000,6204.000000) scale(0.100000,-0.100000)"
fill="#000000" stroke="none">
<path d="M23258 48702 c-7 -24 -91 -34 -222 -25 -65 4 -100 2 -109 -5 -20 -17
-152 -27 -161 -13 -4 6 -32 11 -62 11 -34 0 -53 -4 -49 -10 7 -12 -36 -30 -71
-30 -13 0 -24 5 -24 10 0 6 -32 10 -75 10 -57 0 -75 -3 -75 -14 0 -17 -93 -33
-98 -17 -5 16 -79 14 -85 -3 -7 -16 -87 -28 -103 -15 -8 7 -14 6 -19 -1 -9
-14 -45 -13 -45 2 0 6 -6 4 -14 -7 -11 -15 -22 -17 -64 -12 -28 3 -54 2 -56
-2 -5 -8 -114 -25 -266 -41 -52 -6 -107 -13 -122 -16 -16 -4 -28 -2 -28 3 0 5
-18 7 -40 5 -22 -2 -40 -8 -40 -12 0 -14 -61 -23 -73 -11 -16 16 -67 14 -67
-3 0 -18 -62 -34 -68 -17 -6 18 -50 13 -72 -9 -21 -21 -60 -27 -60 -10 0 15
-21 12 -34 -5 -6 -8 -44 -19 -91 -25 -44 -6 -102 -15 -130 -20 -27 -4 -67 -6
-88 -3 -29 4 -41 2 -51 -12 -10 -14 -21 -17 -45 -12 -20 4 -40 2 -54 -7 -24
-15 -137 -29 -137 -18 0 4 -18 6 -40 4 -25 -3 -40 -9 -40 -18 0 -18 -50 -31
-60 -15 -5 10 -9 9 -13 -2 -7 -18 -85 -31 -102 -17 -9 8 -14 7 -18 -4 -5 -12
-141 -50 -163 -45 -5 1 -16 0 -24 -3 -41 -15 -120 -29 -129 -23 -6 3 -22 -2
-36 -11 -16 -10 -34 -14 -50 -10 -17 4 -31 1 -41 -9 -18 -17 -44 -20 -44 -4 0
6 -15 2 -32 -9 -18 -11 -49 -23 -68 -26 -19 -3 -53 -10 -75 -16 -70 -20 -95
-23 -95 -11 0 6 -4 11 -10 11 -5 0 -10 -6 -10 -14 0 -16 -3 -17 -105 -40 -38
-9 -89 -21 -111 -27 -23 -6 -51 -8 -62 -5 -13 5 -22 1 -26 -10 -5 -12 -14 -15
-35 -11 -20 4 -31 2 -35 -8 -7 -18 -53 -20 -59 -2 -3 10 -9 10 -26 0 -11 -7
-28 -13 -36 -13 -8 0 -15 -6 -15 -14 0 -8 -14 -17 -32 -21 -18 -4 -83 -22
-145 -40 -64 -19 -123 -30 -138 -27 -19 3 -30 0 -37 -12 -6 -11 -17 -14 -34
-10 -13 3 -24 2 -24 -4 0 -15 -93 -43 -105 -31 -13 13 -25 11 -25 -5 0 -9 -36
-25 -102 -46 -57 -17 -115 -36 -130 -42 -16 -6 -39 -8 -53 -6 -17 4 -25 1 -25
-8 0 -8 -10 -14 -24 -14 -14 0 -28 -4 -31 -10 -3 -5 -15 -10 -26 -10 -10 0
-27 -4 -37 -10 -37 -20 -301 -100 -315 -94 -8 3 -17 -1 -20 -8 -3 -8 -24 -20
-48 -27 -24 -7 -53 -17 -64 -22 -64 -28 -172 -58 -192 -53 -17 5 -23 2 -23
-10 0 -9 -1 -16 -3 -16 -1 0 -26 -9 -55 -19 -28 -11 -60 -17 -71 -14 -11 3
-21 -2 -25 -12 -4 -11 -12 -14 -25 -10 -13 4 -27 -1 -40 -14 -12 -12 -27 -21
-35 -21 -7 0 -40 -12 -72 -26 -32 -14 -92 -37 -133 -51 -42 -14 -81 -29 -88
-35 -7 -5 -18 -8 -25 -5 -7 2 -20 -1 -28 -8 -8 -7 -37 -22 -65 -33 -27 -11
-80 -32 -117 -47 -36 -15 -71 -24 -77 -21 -6 4 -11 3 -11 -3 0 -6 -17 -17 -37
-26 -21 -9 -45 -20 -54 -25 -9 -5 -61 -27 -115 -50 -54 -24 -126 -55 -159 -70
-33 -15 -94 -42 -135 -60 -41 -18 -97 -43 -125 -56 -27 -12 -61 -28 -75 -33
-14 -6 -32 -15 -40 -21 -42 -26 -160 -69 -176 -63 -11 4 -15 3 -10 -5 8 -14
-89 -66 -109 -58 -7 2 -16 -1 -18 -8 -3 -7 -33 -27 -68 -44 -47 -24 -65 -29
-71 -19 -5 8 -8 7 -8 -5 0 -21 -116 -81 -142 -72 -12 3 -18 0 -18 -9 0 -8 -8
-17 -17 -20 -10 -4 -37 -18 -61 -32 -24 -14 -47 -23 -53 -20 -5 4 -9 2 -9 -4
0 -5 -33 -27 -72 -48 -67 -35 -87 -40 -80 -20 6 18 -9 5 -17 -15 -5 -13 -31
-34 -58 -48 -70 -36 -531 -292 -593 -330 -95 -57 -283 -167 -312 -183 -21 -10
-38 -23 -38 -28 0 -5 -5 -9 -12 -9 -6 0 -19 -6 -27 -14 -9 -7 -36 -24 -61 -37
-25 -13 -49 -28 -55 -32 -25 -19 -176 -117 -182 -117 -4 0 -15 -7 -25 -17 -10
-9 -27 -21 -37 -27 -55 -32 -152 -95 -201 -130 -30 -23 -70 -49 -89 -59 -18
-10 -42 -27 -54 -38 -11 -10 -31 -19 -44 -19 -13 0 -23 -6 -23 -12 -1 -17
-100 -84 -118 -80 -7 2 -16 -5 -19 -15 -5 -21 -80 -76 -93 -68 -5 3 -11 -3
-14 -12 -3 -10 -18 -26 -33 -35 -55 -34 -67 -43 -98 -70 -16 -16 -33 -28 -36
-28 -4 0 -29 -18 -55 -40 -27 -22 -53 -40 -59 -40 -6 0 -16 -9 -23 -20 -7 -11
-19 -20 -27 -20 -8 0 -15 -4 -15 -8 0 -5 -12 -15 -27 -23 -16 -8 -32 -19 -38
-25 -21 -24 -65 -47 -65 -34 0 10 -3 10 -15 0 -8 -7 -15 -18 -15 -24 0 -14
-53 -60 -205 -175 -60 -47 -133 -104 -161 -128 -28 -24 -54 -43 -58 -43 -4 0
-24 -17 -44 -37 -21 -21 -66 -60 -102 -88 -35 -27 -80 -64 -99 -81 -20 -18
-92 -80 -161 -140 -69 -59 -139 -121 -157 -138 -18 -17 -45 -42 -60 -55 -15
-13 -62 -54 -103 -91 -41 -37 -102 -92 -135 -121 -61 -54 -84 -77 -412 -400
-204 -202 -518 -526 -555 -574 -13 -16 -33 -39 -44 -50 -31 -29 -142 -152
-194 -215 -25 -30 -68 -79 -95 -110 -44 -48 -103 -116 -137 -158 -25 -31 -141
-171 -178 -214 -22 -25 -40 -49 -40 -53 0 -7 -37 -52 -98 -119 -9 -11 -28 -36
-42 -57 -14 -20 -61 -82 -105 -137 -44 -55 -87 -110 -95 -122 -8 -12 -23 -31
-32 -43 -68 -87 -149 -194 -178 -237 -19 -28 -62 -88 -95 -133 -33 -45 -80
-112 -105 -148 -137 -201 -286 -423 -295 -437 -5 -10 -27 -43 -47 -74 -21 -32
-38 -60 -38 -63 0 -2 -13 -24 -29 -47 -42 -61 -116 -180 -124 -198 -4 -8 -16
-28 -27 -45 -11 -16 -25 -41 -32 -55 -7 -14 -15 -27 -18 -30 -14 -14 -50 -71
-50 -80 0 -6 -23 -47 -51 -93 -83 -132 -99 -164 -99 -195 0 -16 7 -35 15 -42
8 -7 15 -20 15 -29 0 -22 33 -115 44 -122 5 -4 6 -14 3 -22 -3 -8 -2 -18 3
-23 5 -5 25 -54 44 -109 20 -55 40 -109 45 -120 5 -11 20 -49 32 -85 12 -36
39 -112 61 -169 21 -57 37 -111 36 -120 -2 -9 3 -21 10 -27 14 -10 26 -38 62
-146 10 -31 25 -69 33 -85 8 -15 26 -64 41 -108 15 -44 33 -93 41 -110 7 -16
20 -48 28 -70 26 -69 88 -229 102 -260 7 -16 22 -52 33 -80 11 -27 40 -101 66
-164 32 -80 43 -118 36 -126 -8 -9 -5 -14 7 -18 11 -3 29 -32 46 -78 16 -41
37 -94 47 -119 69 -165 83 -196 91 -204 5 -6 9 -19 9 -30 0 -12 12 -39 25 -61
14 -22 25 -48 25 -57 0 -10 3 -18 8 -18 4 0 18 -29 30 -65 13 -36 28 -67 33
-71 5 -3 9 -12 9 -20 0 -16 21 -61 197 -434 28 -58 56 -123 64 -145 7 -22 18
-47 25 -55 6 -8 39 -73 73 -145 34 -71 65 -137 70 -145 5 -8 39 -76 75 -150
37 -74 71 -142 76 -150 5 -8 19 -35 32 -60 12 -25 41 -77 64 -117 24 -39 60
-107 82 -150 53 -106 65 -127 80 -136 6 -4 12 -15 12 -23 0 -8 12 -33 27 -57
15 -23 39 -64 54 -92 15 -27 47 -84 72 -125 25 -41 67 -111 93 -155 26 -44 93
-150 150 -235 56 -86 108 -168 115 -183 7 -15 16 -27 21 -27 4 0 8 -5 8 -10 0
-6 17 -34 38 -63 22 -29 41 -57 43 -62 2 -6 26 -40 52 -75 26 -36 87 -120 135
-187 90 -126 227 -308 249 -331 7 -7 13 -20 13 -28 0 -8 6 -14 14 -14 8 0 24
-15 35 -32 31 -48 63 -90 89 -118 57 -59 227 -263 232 -277 3 -8 8 -13 11 -11
2 2 22 -17 44 -42 22 -25 50 -53 63 -63 12 -10 22 -23 22 -27 0 -13 474 -490
486 -490 5 0 21 -12 35 -27 93 -100 228 -215 618 -529 14 -12 44 -34 67 -50
98 -69 219 -161 241 -181 13 -13 27 -23 30 -23 3 0 21 -11 39 -25 18 -14 35
-25 38 -25 3 0 26 -15 51 -32 26 -18 54 -37 63 -43 62 -37 132 -88 132 -97 0
-5 4 -7 9 -3 6 3 29 -8 53 -23 24 -16 71 -47 105 -68 35 -22 63 -45 63 -51 0
-7 11 -13 24 -13 14 0 44 -13 68 -29 24 -16 70 -44 103 -62 33 -18 62 -35 65
-38 7 -8 35 -24 159 -88 68 -35 109 -62 114 -76 6 -16 10 -18 16 -9 6 10 35
-1 117 -44 110 -58 182 -94 264 -133 25 -12 52 -25 60 -30 8 -6 42 -20 75 -32
33 -13 67 -28 75 -34 19 -13 85 -44 180 -84 41 -18 89 -38 105 -45 17 -8 46
-21 66 -30 20 -9 40 -24 43 -33 5 -13 9 -14 15 -5 8 13 20 9 116 -32 17 -7 56
-23 88 -36 34 -13 57 -28 57 -37 0 -13 3 -13 15 -3 10 8 19 9 28 2 6 -5 48
-22 92 -37 44 -15 91 -34 105 -41 14 -7 65 -25 114 -41 62 -19 90 -33 94 -45
3 -14 8 -16 18 -7 8 6 21 8 31 4 10 -5 54 -21 98 -36 43 -15 81 -32 83 -37 2
-6 10 -8 17 -5 13 4 67 -11 130 -37 11 -5 30 -12 43 -15 12 -4 22 -13 22 -22
0 -11 6 -14 26 -9 25 7 140 -19 158 -35 6 -5 18 -9 28 -9 10 0 21 -6 24 -14 3
-8 13 -12 23 -9 9 2 50 -5 91 -17 41 -12 88 -24 104 -27 16 -3 31 -14 33 -24
6 -21 28 -25 38 -8 4 6 14 7 24 4 18 -8 168 -50 341 -96 138 -37 163 -46 156
-58 -3 -5 5 -11 19 -13 13 -3 26 -1 27 4 6 17 88 -11 89 -30 0 -10 3 -12 6 -4
7 17 53 15 60 -4 4 -11 8 -12 13 -4 5 8 27 6 81 -9 41 -11 86 -23 101 -26 15
-3 33 -11 40 -18 17 -18 56 -27 60 -15 5 13 90 -7 103 -25 14 -19 43 -28 47
-15 3 7 12 9 22 5 9 -4 14 -11 11 -17 -3 -5 -2 -10 4 -10 5 0 11 5 13 11 6 17
58 -1 59 -20 0 -10 2 -11 6 -3 7 17 20 16 185 -20 95 -21 148 -37 148 -45 0
-16 22 -17 36 -3 12 12 64 -3 64 -19 0 -5 11 -11 25 -13 14 -3 25 -1 25 3 0
14 30 10 36 -4 3 -9 22 -13 56 -13 34 1 53 -3 56 -12 3 -10 7 -10 18 -1 10 8
22 8 45 0 18 -6 44 -11 60 -11 15 0 29 -5 31 -12 2 -6 26 -13 54 -14 107 -6
244 -35 244 -51 0 -16 22 -17 36 -3 13 13 64 -4 64 -20 0 -13 43 -13 56 0 14
14 68 -5 59 -20 -3 -5 1 -10 9 -10 8 0 18 5 21 10 10 16 40 11 69 -11 19 -15
30 -18 39 -10 15 12 86 -5 100 -24 4 -6 10 -5 16 4 11 17 71 5 71 -15 0 -17
17 -19 22 -3 5 15 173 -8 188 -26 7 -8 25 -11 53 -8 32 4 48 1 60 -11 13 -13
27 -15 67 -10 41 5 51 4 56 -10 7 -18 54 -22 71 -5 12 12 53 -4 53 -21 0 -12
40 -13 59 -1 18 12 41 3 41 -15 0 -16 31 -19 46 -4 15 15 94 1 94 -16 0 -17
57 -19 62 -2 5 15 98 -9 98 -26 0 -6 4 -5 9 3 10 16 85 8 108 -11 8 -6 31 -8
57 -5 33 5 47 2 57 -9 10 -12 24 -14 65 -9 38 4 55 2 66 -8 16 -16 88 -28 88
-14 0 13 62 0 71 -15 5 -7 26 -9 63 -4 46 5 58 3 62 -9 7 -17 55 -20 70 -5 6
6 23 5 47 -4 20 -7 34 -16 30 -19 -3 -4 -1 -7 5 -7 6 0 14 5 18 11 4 7 24 9
55 5 61 -8 81 -15 73 -27 -3 -5 -1 -9 5 -9 5 0 13 5 16 10 7 11 54 13 79 4 9
-3 16 -12 16 -20 0 -10 15 -14 60 -14 37 0 60 4 60 11 0 13 78 2 98 -13 16
-13 18 -10573 2 -10583 -9 -6 -117 13 -200 35 -19 5 -68 17 -107 26 -47 11
-73 22 -73 30 0 16 -12 18 -26 4 -6 -6 -23 -6 -44 -1 -19 5 -47 12 -62 15 -16
4 -28 13 -28 21 0 17 -26 21 -32 5 -4 -13 -106 11 -116 27 -4 6 -20 11 -37 11
-66 1 -185 33 -185 50 0 5 -10 7 -23 5 -35 -7 -107 15 -107 32 0 18 -36 20
-44 3 -3 -9 -12 -5 -26 11 -18 21 -24 23 -40 13 -12 -7 -21 -8 -25 -2 -3 6
-16 10 -28 10 -12 0 -39 6 -62 14 -22 8 -69 22 -104 32 -35 11 -65 24 -68 30
-2 6 -15 9 -29 6 -17 -3 -24 0 -24 11 0 11 -9 15 -32 13 -20 0 -32 4 -31 10 1
7 -7 14 -17 17 -11 3 -20 1 -20 -4 0 -5 -7 -9 -15 -9 -8 0 -15 7 -15 15 0 17
-11 20 -25 6 -16 -15 -335 96 -364 126 -16 17 -26 21 -31 13 -9 -15 -60 -2
-67 17 -3 8 -13 11 -23 8 -17 -5 -311 97 -337 118 -7 5 -10 14 -6 21 4 6 0 5
-9 -2 -14 -11 -21 -11 -45 1 -15 8 -40 17 -55 21 -15 3 -32 15 -38 25 -6 12
-17 17 -29 14 -16 -4 -111 29 -206 72 -133 61 -188 85 -192 85 -7 0 -75 30
-93 41 -8 5 -22 12 -30 15 -70 27 -190 81 -212 96 -14 10 -31 18 -37 18 -24 0
-89 40 -105 65 -13 20 -21 24 -30 16 -13 -11 -39 -2 -116 40 -19 10 -61 31
-92 46 -32 16 -58 32 -58 36 0 5 -6 15 -14 23 -11 10 -15 11 -19 1 -2 -8 -18
-4 -53 15 -27 14 -87 46 -134 71 -109 57 -164 89 -168 99 -2 4 -10 8 -18 8 -8
0 -14 5 -14 10 0 6 -6 10 -14 10 -27 0 -116 51 -116 66 0 10 -6 13 -19 9 -12
-4 -41 10 -86 40 -37 25 -70 45 -72 45 -3 0 -25 14 -50 30 -24 17 -46 30 -48
30 -16 0 -105 64 -105 76 0 7 -6 11 -13 8 -7 -2 -29 6 -48 18 -19 13 -50 32
-69 42 -34 19 -184 116 -349 225 -46 31 -92 69 -101 84 -12 19 -19 24 -23 15
-3 -9 -9 -10 -20 -3 -66 42 -239 162 -317 220 -53 38 -133 97 -179 130 -46 33
-122 90 -170 127 -47 37 -103 79 -124 95 -21 15 -50 38 -65 50 -15 13 -44 35
-64 50 -141 105 -257 201 -262 217 -2 10 -10 15 -16 11 -6 -3 -21 2 -33 13
-72 65 -106 92 -114 92 -5 0 -22 14 -39 31 -16 17 -75 67 -131 111 -57 44
-103 87 -103 94 0 8 -8 14 -18 14 -9 0 -51 30 -93 67 -42 38 -132 115 -200
172 -68 58 -139 119 -158 135 -56 52 -65 60 -111 97 -25 20 -63 53 -85 74 -22
20 -53 46 -70 56 -29 18 -112 19 -3038 19 -2003 0 -3006 3 -3002 10 3 6 -3 10
-14 10 -12 0 -21 -4 -21 -10 0 -5 -11 -10 -25 -10 -14 0 -25 5 -25 10 0 6 -12
10 -26 10 -14 0 -23 -4 -20 -9 4 -5 1 -11 -5 -13 -9 -3 -9 -9 -1 -23 9 -16 99
-172 142 -245 4 -8 40 -68 79 -132 39 -65 71 -124 71 -133 0 -8 6 -15 13 -15
6 0 24 -21 40 -48 30 -51 48 -80 60 -96 50 -71 177 -272 177 -282 0 -7 4 -14
9 -16 4 -1 52 -68 106 -148 53 -80 105 -154 116 -166 10 -11 19 -24 19 -28 0
-4 11 -22 25 -40 14 -18 25 -43 25 -54 0 -14 6 -22 18 -22 9 0 32 -23 52 -53
19 -28 53 -74 75 -102 23 -27 69 -90 104 -139 34 -48 66 -93 71 -100 30 -36
78 -100 100 -131 14 -20 36 -49 50 -64 14 -15 36 -42 50 -60 14 -18 31 -39 37
-46 7 -7 35 -42 62 -77 27 -34 57 -71 65 -80 9 -10 16 -25 16 -33 0 -8 6 -15
14 -15 7 0 35 -28 62 -62 75 -96 286 -342 302 -351 7 -5 21 -22 31 -37 9 -16
66 -82 127 -147 136 -146 201 -216 238 -256 15 -18 59 -64 97 -104 38 -39 69
-78 69 -87 0 -9 8 -16 17 -16 21 0 133 -115 133 -136 0 -8 8 -14 18 -14 19 0
125 -104 135 -132 4 -10 13 -18 20 -18 16 0 137 -123 137 -139 0 -6 5 -11 11
-11 16 0 289 -251 289 -266 0 -8 6 -14 13 -14 6 0 38 -24 71 -52 214 -192 301
-269 314 -277 5 -3 32 -25 58 -48 44 -37 110 -92 292 -243 30 -25 73 -59 95
-76 23 -17 47 -40 52 -51 6 -11 16 -18 23 -15 8 2 28 -9 45 -25 18 -17 61 -52
97 -79 103 -78 225 -176 228 -186 2 -4 10 -8 17 -8 7 0 27 -13 45 -30 18 -16
35 -30 39 -30 13 0 95 -72 106 -93 6 -12 20 -22 32 -22 22 -1 91 -44 121 -77
9 -10 21 -18 26 -18 5 0 41 -24 80 -53 39 -30 76 -56 81 -58 11 -5 307 -201
315 -209 6 -7 144 -101 168 -115 9 -6 46 -27 82 -49 36 -21 79 -48 95 -60 17
-12 47 -30 69 -41 21 -11 40 -26 43 -32 3 -7 10 -13 16 -13 16 0 137 -81 137
-91 0 -5 7 -9 15 -9 9 0 33 -11 55 -25 22 -14 42 -25 46 -25 3 0 26 -13 51
-30 24 -16 46 -30 48 -30 2 0 45 -25 95 -55 112 -68 221 -130 320 -182 101
-53 120 -66 120 -80 0 -7 7 -10 15 -7 8 4 21 2 28 -3 13 -11 153 -86 285 -154
58 -30 82 -47 82 -60 0 -21 16 -26 23 -6 6 15 117 -41 117 -60 0 -7 7 -10 15
-7 23 9 145 -57 145 -78 0 -20 11 -23 25 -9 13 11 261 -111 257 -127 -2 -14
14 -16 23 -3 3 6 40 -7 83 -28 84 -42 155 -75 247 -116 33 -14 92 -41 130 -59
39 -19 86 -39 105 -46 19 -7 64 -26 100 -42 36 -17 94 -41 130 -55 36 -14 73
-37 84 -50 13 -17 21 -21 31 -13 16 14 135 -36 135 -57 0 -10 6 -12 20 -8 22
7 53 -3 225 -72 140 -56 148 -61 138 -76 -4 -8 -1 -8 9 1 11 9 23 10 39 3 13
-5 49 -19 79 -31 30 -11 64 -25 75 -29 11 -5 45 -16 75 -26 30 -9 63 -26 73
-37 9 -11 17 -15 17 -9 0 16 26 13 45 -5 9 -9 18 -14 21 -11 10 9 288 -92 301
-109 7 -10 19 -14 29 -10 11 4 24 -1 37 -15 15 -16 22 -18 27 -8 7 10 21 8 67
-8 72 -26 230 -75 345 -109 48 -14 91 -30 95 -37 5 -7 19 -12 33 -12 16 0 24
-5 22 -14 -3 -12 0 -12 12 -2 12 10 43 4 168 -33 84 -25 154 -50 156 -55 1 -4
14 -6 27 -3 17 3 27 -1 31 -12 5 -13 14 -15 35 -11 23 5 29 3 29 -10 0 -13 7
-15 35 -9 27 5 36 2 41 -9 4 -12 14 -15 35 -10 22 4 29 2 29 -11 0 -18 16 -22
22 -5 4 12 208 -38 208 -51 0 -4 11 -5 23 -3 13 3 30 -2 38 -9 20 -20 45 -28
55 -18 13 13 86 -6 101 -26 9 -12 20 -15 43 -11 22 5 32 3 37 -8 4 -11 9 -13
18 -5 16 13 69 -5 60 -21 -5 -6 0 -6 12 1 15 10 37 8 109 -9 49 -12 112 -26
139 -32 28 -6 58 -15 67 -20 10 -5 30 -9 45 -9 42 -1 124 -25 132 -39 5 -8 21
-10 49 -5 34 5 43 3 48 -10 5 -12 10 -14 19 -6 9 7 34 6 84 -5 40 -8 74 -15
77 -15 2 0 4 -7 4 -15 0 -18 50 -21 67 -4 8 8 14 7 23 -3 8 -8 29 -12 55 -10
27 3 47 -1 55 -10 8 -8 27 -12 50 -10 24 3 42 -2 52 -12 11 -10 26 -13 50 -10
24 4 39 1 51 -10 18 -18 38 -21 53 -6 13 13 64 -4 64 -21 0 -8 14 -9 44 -5 55
9 178 -10 192 -29 13 -17 45 -20 60 -5 11 11 94 -8 94 -22 0 -6 6 -5 14 1 18
15 102 0 98 -17 -3 -16 25 -15 30 0 3 9 19 9 70 0 36 -7 84 -12 106 -12 24 0
47 -7 57 -16 12 -13 27 -15 74 -9 47 5 61 3 74 -10 14 -13 29 -15 87 -9 61 6
71 4 76 -11 6 -15 16 -16 80 -10 65 6 75 5 81 -10 5 -15 16 -17 88 -11 68 6
86 4 98 -9 18 -18 39 -19 54 -4 16 16 123 1 123 -17 0 -11 17 -14 69 -14 40 0
71 5 73 11 5 16 138 0 138 -17 0 -11 18 -14 69 -14 39 0 72 4 75 9 7 10 99 2
106 -10 3 -5 55 -7 115 -5 164 6 243 -3 250 -25 6 -16 17 -19 86 -19 67 0 79
3 79 17 0 15 15 16 162 10 96 -4 164 -11 166 -17 5 -14 929 -14 934 1 2 6 61
12 151 16 132 5 147 4 147 -10 0 -15 15 -17 115 -17 105 0 115 2 115 19 0 15
11 19 65 25 36 4 71 4 77 0 14 -9 190 -5 203 5 17 14 93 22 100 11 3 -5 42
-10 86 -10 60 0 79 3 79 14 0 17 133 33 138 17 2 -6 33 -11 73 -11 54 0 67 3
63 14 -3 9 5 15 27 20 47 9 89 7 89 -4 0 -5 11 -10 25 -10 14 0 24 5 23 12 -4
15 92 30 107 17 14 -13 43 -11 48 4 3 8 29 11 92 10 65 -1 92 2 102 13 11 11
30 13 84 8 60 -6 71 -4 83 11 11 15 22 17 74 11 40 -4 62 -3 62 3 0 15 69 26
82 13 8 -8 15 -7 24 2 17 18 127 32 132 17 5 -16 22 -14 22 3 0 20 99 33 111
15 8 -12 12 -11 22 2 14 19 107 36 107 20 0 -16 37 -13 43 3 7 17 66 27 90 14
13 -6 17 -5 17 7 0 14 8 15 54 10 45 -6 54 -4 60 10 5 14 14 16 43 12 21 -4
42 -2 50 4 19 16 79 28 94 18 8 -4 16 -4 19 2 4 5 33 14 66 20 32 6 79 15 104
19 25 5 90 18 145 30 55 11 115 18 133 15 24 -5 34 -2 39 10 5 14 14 16 49 10
29 -4 44 -3 44 5 0 16 43 29 57 18 9 -7 17 -5 28 5 8 8 34 18 57 22 24 4 67
14 96 22 30 8 65 13 78 10 13 -2 29 2 35 9 6 8 21 14 34 14 12 0 37 5 54 11
24 9 35 9 44 0 15 -15 27 -14 27 2 0 17 101 41 130 32 15 -5 20 -2 20 10 0 14
7 16 35 13 23 -3 36 1 40 10 4 10 15 13 40 9 20 -3 35 -1 37 5 2 6 53 24 114
38 60 15 114 29 119 30 6 2 19 -1 29 -5 13 -6 22 -3 30 8 17 22 119 54 124 39
5 -17 20 -15 24 4 3 16 51 34 133 50 17 3 40 10 52 16 12 6 31 8 42 5 12 -3
21 -1 21 3 0 5 33 18 73 30 39 12 84 26 100 31 20 6 27 5 27 -6 0 -10 5 -11
25 -2 14 7 25 18 25 26 0 10 8 12 29 8 18 -4 31 -2 33 5 6 16 261 98 273 87
14 -14 22 -11 28 11 5 20 27 28 27 10 0 -5 5 -10 10 -10 6 0 10 7 10 16 0 13
7 15 35 10 27 -5 35 -4 35 7 0 16 204 91 226 83 7 -3 22 4 35 15 12 10 30 19
40 19 10 0 21 5 24 10 8 12 45 13 45 1 0 -5 11 -4 25 2 14 7 25 18 25 25 0 6
5 12 11 12 6 0 25 6 42 14 66 28 127 47 136 42 5 -4 11 -2 13 3 5 15 127 60
133 50 9 -14 25 -11 25 5 0 22 19 30 35 16 12 -10 15 -9 15 4 0 9 8 19 18 22
41 14 150 57 187 73 22 10 58 24 80 32 22 7 46 17 53 22 7 6 18 5 28 -3 8 -8
14 -9 13 -4 -4 23 3 32 27 38 14 4 45 15 68 25 55 24 146 62 171 71 11 4 40
17 64 29 31 15 46 18 51 11 5 -8 9 -6 13 5 4 9 24 23 44 31 21 9 76 34 121 55
49 23 92 37 102 34 12 -4 20 0 22 10 2 9 44 34 98 59 52 23 112 50 132 60 20
10 41 15 47 12 13 -8 41 4 41 18 0 6 91 56 203 111 111 55 238 120 282 144 44
24 81 38 83 33 5 -15 32 -3 32 14 0 7 11 19 25 26 14 7 70 37 126 66 55 29
104 50 110 47 5 -4 12 1 15 9 3 9 27 26 52 38 26 13 49 26 52 29 3 3 39 25 80
48 41 22 82 46 90 51 8 5 33 19 55 31 36 19 166 95 205 119 32 20 110 59 110
55 0 -2 11 6 24 18 13 13 37 29 53 37 15 8 48 28 73 45 78 51 88 56 94 42 3
-7 8 -3 11 10 7 21 93 83 115 83 6 0 10 4 10 8 0 4 15 16 33 26 37 21 111 69
214 138 39 26 75 48 80 48 4 1 24 14 43 30 19 17 39 30 46 30 6 0 17 7 24 15
7 9 74 57 149 107 159 106 194 131 201 139 3 3 27 21 54 40 27 19 65 46 85 61
87 64 147 102 159 100 6 -2 12 3 12 11 0 12 76 75 208 172 15 11 57 43 93 72
36 29 69 53 72 53 3 0 17 10 30 22 57 53 117 98 155 118 23 12 42 27 42 34 0
20 57 57 76 49 11 -4 15 -2 11 4 -9 14 6 31 108 118 50 42 106 91 125 108 78
70 160 137 166 137 4 0 22 18 41 40 19 22 38 40 42 40 5 0 39 29 77 65 38 35
77 65 87 65 9 0 17 5 17 11 0 12 50 61 215 214 60 55 169 159 243 232 74 73
138 134 141 135 20 10 687 714 703 743 5 7 33 39 64 71 30 32 58 63 62 70 4 6
34 41 67 77 33 36 65 72 70 79 6 7 35 42 66 78 31 36 75 91 99 123 23 31 49
57 56 57 8 0 14 4 14 10 0 9 47 74 96 133 12 15 27 27 33 27 6 0 11 5 11 11 0
11 45 72 87 119 13 14 23 28 23 32 0 5 8 16 18 26 9 10 39 47 67 83 27 35 52
66 56 69 8 7 199 261 199 265 0 9 69 103 146 200 9 11 37 52 62 90 26 39 89
131 142 205 53 74 111 160 130 190 19 30 38 60 42 65 36 47 118 168 118 174 0
4 9 16 20 26 11 10 20 22 20 26 0 5 26 49 58 99 31 49 79 126 106 170 27 44
54 80 61 80 7 0 15 14 19 30 3 17 21 55 40 85 19 29 44 72 56 94 11 23 27 41
35 41 9 0 15 10 15 25 0 16 -6 25 -15 25 -8 0 -15 5 -15 10 0 6 -29 70 -65
142 -36 71 -65 139 -65 149 0 10 -5 21 -10 24 -10 6 -140 268 -140 281 0 4
-105 226 -131 276 -5 10 -9 31 -9 48 0 20 -5 30 -15 30 -9 0 -30 31 -51 78
-20 42 -67 140 -104 217 -37 77 -80 167 -95 200 -15 33 -78 164 -140 290 -124
254 -155 320 -155 335 0 5 -4 10 -10 10 -5 0 -10 6 -10 13 0 7 -13 37 -29 67
-16 30 -50 98 -75 150 -26 52 -52 104 -58 115 -7 11 -49 97 -95 190 -46 94
-88 177 -93 185 -5 8 -26 49 -47 90 -21 41 -76 147 -123 235 -47 88 -94 180
-105 205 -11 25 -22 47 -26 50 -3 3 -12 19 -21 35 -8 17 -34 64 -57 106 -22
42 -41 86 -41 97 0 11 -9 26 -19 33 -11 8 -57 84 -104 169 -135 249 -141 260
-204 365 -83 140 -158 267 -167 285 -4 8 -17 31 -29 51 -69 114 -87 148 -87
163 0 9 -6 16 -12 16 -7 0 -27 24 -45 53 -166 271 -437 679 -572 862 -37 50
-84 116 -106 148 -21 31 -41 57 -45 57 -4 0 -13 12 -21 28 -8 15 -46 65 -84
112 -101 123 -155 197 -155 215 0 9 -8 19 -18 23 -10 4 -36 27 -58 52 -66 75
-138 160 -159 189 -38 53 -171 198 -398 434 -20 21 -37 45 -37 53 0 8 -5 14
-11 14 -5 0 -49 38 -97 83 -248 238 -316 302 -409 383 -105 91 -112 98 -245
204 -43 34 -78 68 -78 76 0 8 -5 14 -12 14 -13 0 -119 79 -131 97 -4 7 -12 13
-18 13 -5 0 -45 26 -88 58 -44 31 -89 64 -102 72 -12 8 -29 23 -38 33 -8 9
-19 17 -24 17 -5 0 -56 34 -113 75 -57 41 -107 75 -110 75 -14 0 -113 76 -114
87 0 7 -6 10 -14 7 -7 -3 -48 18 -90 46 -42 28 -84 54 -92 57 -8 3 -14 12 -14
20 0 8 -4 11 -10 8 -16 -10 -90 46 -91 69 -1 17 -2 17 -6 4 -2 -10 -7 -18 -9
-18 -3 0 -39 20 -80 45 -40 25 -78 45 -84 45 -5 0 -10 4 -10 8 0 4 -13 13 -30
19 -17 6 -30 19 -30 28 0 11 -6 15 -19 10 -13 -4 -20 0 -24 16 -5 18 -9 20
-20 11 -10 -9 -18 -8 -34 3 -24 17 -212 115 -348 182 -140 68 -209 103 -225
113 -23 13 -87 40 -97 40 -4 0 -19 9 -33 20 -14 11 -31 20 -37 20 -7 0 -42 14
-76 30 -35 17 -67 30 -71 30 -4 0 -31 11 -59 24 -29 13 -88 39 -132 56 -44 18
-85 39 -91 46 -6 8 -14 11 -17 8 -3 -3 -12 -2 -19 2 -7 5 -40 18 -73 30 -185
65 -315 118 -315 129 0 7 -12 12 -27 12 -34 1 -61 9 -223 66 -68 24 -126 49
-128 56 -2 6 -14 8 -28 5 -17 -4 -26 -1 -30 10 -3 9 -12 16 -20 16 -8 0 -14 5
-14 11 0 8 -4 8 -14 0 -11 -9 -27 -7 -73 9 -32 12 -71 26 -88 30 -79 22 -178
58 -184 67 -10 16 -39 23 -44 10 -3 -7 -15 -1 -31 17 -19 21 -26 25 -26 13 0
-21 -19 -22 -26 -2 -4 10 -15 12 -35 8 -22 -4 -29 -2 -29 9 0 10 -7 14 -22 11
-31 -6 -104 20 -101 35 4 14 -9 16 -23 2 -13 -13 -54 -1 -54 16 0 17 -12 18
-29 2 -10 -11 -16 -8 -31 12 -11 14 -20 19 -20 13 0 -19 -18 -16 -48 8 -16 12
-28 16 -30 10 -5 -16 -32 -13 -32 4 0 10 -7 13 -27 9 -31 -6 -103 20 -103 37
0 8 -5 7 -15 -1 -12 -10 -24 -10 -53 -2 -20 6 -47 14 -59 17 -13 4 -23 14 -24
23 0 11 -3 12 -6 5 -6 -17 -24 -16 -89 3 -33 9 -54 21 -54 30 0 8 -4 14 -10
14 -5 0 -10 -4 -10 -10 0 -15 -36 -12 -53 4 -8 8 -24 12 -40 9 -21 -4 -27 -1
-27 12 0 13 -6 15 -29 10 -36 -8 -112 11 -128 32 -9 12 -16 13 -25 5 -18 -14
-68 -3 -68 15 0 11 -5 13 -17 8 -21 -9 -26 -9 -78 4 -22 5 -98 21 -170 37 -71
15 -135 33 -141 41 -8 9 -22 11 -44 6 -24 -4 -36 -2 -45 10 -8 11 -25 16 -56
14 -30 -1 -43 2 -42 10 2 7 -4 10 -12 7 -13 -5 -95 6 -205 27 -25 5 -63 12
-85 15 -44 7 -68 21 -59 35 3 5 -2 9 -10 9 -9 0 -16 -4 -16 -10 0 -15 -46 -12
-62 3 -16 17 -58 28 -58 16 0 -15 -37 -10 -54 6 -11 11 -25 14 -49 10 -24 -5
-37 -2 -46 9 -10 11 -24 14 -57 9 -35 -4 -45 -2 -50 11 -6 17 -39 22 -48 8 -8
-13 -161 23 -159 37 2 6 -2 11 -7 11 -6 0 -10 -5 -10 -11 0 -15 -87 -3 -116
16 -14 9 -25 10 -31 4 -6 -6 -19 -6 -37 1 -15 5 -45 10 -68 10 -31 0 -41 4
-45 20 -4 14 -14 20 -34 20 -15 0 -31 -4 -34 -10 -9 -15 -31 -12 -49 6 -13 12
-28 14 -64 10 -33 -5 -56 -2 -76 9 -18 10 -41 13 -57 10 -17 -4 -42 0 -63 10
-19 9 -43 14 -54 11 -17 -6 -49 -2 -212 25 -30 5 -93 13 -140 19 -60 7 -89 15
-97 27 -11 14 -16 15 -37 4 -27 -15 -66 -6 -66 15 0 17 -62 19 -89 3 -14 -9
-25 -8 -51 4 -22 12 -45 15 -71 11 -28 -5 -46 -2 -65 11 -20 13 -37 15 -73 10
-36 -5 -52 -3 -63 8 -11 11 -37 15 -99 14 -90 -1 -246 20 -267 37 -9 7 -16 6
-21 -2 -5 -9 -17 -9 -49 1 l-42 12 0 5284 c0 2907 1 5285 3 5287 1 1 21 5 45
9 35 6 42 4 42 -9 0 -9 8 -16 20 -16 11 0 20 5 20 10 0 14 52 1 66 -16 13 -16
40 -18 49 -4 9 14 46 3 64 -19 10 -12 15 -13 18 -3 7 19 41 14 60 -8 20 -23
39 -26 46 -7 3 9 12 8 38 -5 50 -24 66 -27 76 -17 6 6 28 4 59 -5 27 -8 68
-17 91 -21 24 -4 47 -14 52 -22 6 -11 16 -14 32 -10 13 4 84 -7 159 -25 74
-17 149 -33 165 -36 17 -2 38 -13 49 -24 15 -16 20 -17 27 -7 6 11 14 11 42 1
18 -7 43 -12 55 -12 13 0 22 -6 22 -16 0 -12 7 -14 29 -9 22 5 32 2 39 -11 6
-12 17 -15 32 -11 38 10 207 -34 196 -51 -2 -4 12 -8 32 -8 54 0 92 -12 92
-29 0 -18 12 -19 27 -4 15 15 153 -28 153 -48 0 -11 7 -14 25 -9 13 3 57 -3
97 -14 113 -30 352 -110 363 -121 5 -5 19 -9 32 -9 13 0 31 -4 41 -9 9 -5 62
-24 117 -42 134 -43 185 -66 206 -91 14 -15 25 -19 44 -14 13 3 33 2 42 -3 10
-5 41 -17 68 -26 63 -21 79 -27 138 -54 26 -11 54 -21 63 -21 8 0 17 -7 20
-15 4 -8 11 -12 16 -9 5 4 28 -3 51 -14 23 -10 94 -41 157 -67 63 -27 119 -52
124 -57 6 -4 18 -8 28 -8 10 0 18 -7 18 -16 0 -10 6 -14 15 -10 24 9 112 -33
119 -57 4 -15 8 -18 18 -9 17 14 114 -31 129 -60 7 -14 14 -17 18 -9 9 13 211
-85 211 -103 0 -6 12 -12 26 -11 16 0 31 -8 38 -20 16 -28 29 -36 38 -22 5 9
25 3 70 -22 35 -19 70 -40 79 -47 8 -8 21 -14 27 -14 7 0 12 -4 12 -10 0 -5 8
-10 18 -10 10 0 22 -4 28 -9 5 -5 29 -20 54 -33 25 -14 63 -35 85 -48 114 -65
168 -96 183 -105 9 -6 46 -27 82 -48 36 -21 84 -50 106 -65 23 -15 74 -46 112
-70 39 -24 76 -50 83 -58 6 -8 16 -14 21 -14 15 0 68 -43 68 -56 0 -18 27 -38
32 -23 4 13 115 -56 262 -163 55 -40 122 -89 150 -108 28 -19 86 -62 129 -95
43 -33 89 -67 101 -75 32 -22 98 -73 208 -165 53 -44 123 -100 154 -125 103
-81 162 -135 163 -147 1 -7 10 -13 20 -13 11 0 28 -10 38 -22 10 -13 37 -35
61 -51 23 -15 42 -34 42 -42 0 -8 4 -15 9 -15 19 0 135 -101 352 -305 53 -49
121 -111 150 -136 68 -59 149 -141 149 -151 0 -4 5 -8 11 -8 13 0 156 -139
472 -457 l220 -223 73 0 c42 0 74 4 76 11 4 13 439 31 453 18 15 -15 302 -12
308 4 3 9 78 11 342 9 266 -2 340 0 346 10 7 10 79 12 335 10 259 -2 329 0
335 10 7 10 76 13 311 14 167 1 355 6 418 12 135 13 310 15 310 5 0 -10 260 1
464 18 115 10 151 10 154 1 5 -15 282 -17 282 -2 0 6 7 10 15 10 8 0 15 -4 15
-10 0 -5 9 -10 21 -10 11 0 18 4 14 9 -7 12 47 19 221 27 98 4 144 2 148 -5 5
-7 63 -11 167 -11 132 0 159 2 159 14 0 12 26 16 143 18 78 2 146 0 152 -4 14
-12 293 -10 300 2 3 6 19 10 36 10 16 0 29 -4 29 -10 0 -5 7 -10 15 -10 8 0
15 4 15 9 0 13 69 21 202 22 64 1 122 5 128 9 12 7 5 21 -107 203 -18 29 -37
61 -43 72 -5 11 -35 60 -65 108 -30 48 -55 91 -55 94 0 3 -12 22 -27 42 -16
20 -32 43 -38 52 -5 9 -27 42 -47 73 -21 31 -38 60 -38 65 0 5 -6 16 -12 23
-30 32 -128 185 -128 200 0 9 -6 18 -14 21 -16 6 -86 108 -86 124 0 6 -6 13
-13 16 -7 3 -43 49 -80 103 -106 158 -314 444 -352 487 -9 11 -27 33 -39 50
-44 66 -111 154 -148 196 -21 24 -38 50 -38 57 0 8 -4 14 -9 14 -5 0 -20 17
-32 38 -13 20 -28 40 -35 45 -19 11 -154 183 -154 196 0 6 -4 11 -9 11 -8 0
-70 72 -205 240 -38 47 -91 108 -117 135 -27 28 -49 56 -49 62 0 6 -4 13 -9
15 -5 2 -59 59 -122 128 -62 69 -118 129 -126 133 -7 4 -13 17 -13 28 0 11 -8
23 -18 27 -9 4 -51 43 -92 87 -41 44 -101 107 -132 139 -32 33 -58 63 -58 67
0 8 -525 530 -619 616 -178 161 -277 257 -283 274 -4 10 -13 19 -20 19 -18 0
-141 108 -150 132 -4 11 -13 16 -18 13 -6 -4 -54 33 -106 82 -88 81 -113 102
-213 181 -19 15 -57 47 -86 72 -29 25 -83 70 -120 100 -37 30 -89 73 -115 95
-43 36 -69 57 -182 142 -20 15 -42 40 -49 56 -8 19 -17 26 -29 22 -11 -3 -40
13 -81 45 -111 88 -212 162 -331 245 -127 89 -168 124 -169 148 0 12 -3 16 -6
10 -8 -22 -23 -15 -127 60 -56 39 -168 117 -251 172 -82 55 -151 103 -153 108
-2 4 -9 7 -17 7 -7 0 -19 7 -26 16 -7 9 -22 20 -34 25 -11 5 -47 27 -80 49
-33 22 -70 44 -82 50 -13 5 -23 16 -23 24 0 9 -6 13 -15 10 -20 -8 -85 44 -85
68 0 10 -5 16 -10 13 -6 -4 -7 -11 -4 -17 5 -8 1 -9 -10 -5 -10 4 -20 7 -22 7
-2 0 -4 7 -4 15 0 8 -6 15 -14 15 -23 0 -76 34 -76 48 0 8 -7 11 -18 8 -12 -4
-26 1 -37 14 -10 11 -24 20 -32 20 -7 0 -13 5 -13 10 0 6 -5 10 -11 10 -6 0
-61 30 -123 66 -131 77 -113 67 -250 146 -61 35 -122 70 -137 78 -16 8 -52 28
-81 44 -29 15 -60 34 -68 40 -8 7 -45 27 -82 45 -38 18 -68 39 -68 48 0 10 -6
12 -20 8 -15 -5 -20 -2 -20 10 0 11 -5 15 -15 11 -9 -3 -34 5 -55 19 -22 14
-46 25 -53 25 -7 0 -17 4 -23 9 -5 5 -58 35 -119 66 -123 64 -137 73 -129 87
4 6 -1 8 -14 4 -18 -6 -92 22 -142 53 -8 5 -49 25 -90 44 -111 52 -243 114
-345 161 -49 24 -107 50 -127 59 -23 10 -38 24 -38 34 0 15 -2 15 -9 4 -8 -12
-17 -11 -55 7 -25 12 -48 22 -50 22 -7 0 -139 60 -166 75 -14 8 -24 18 -23 23
1 5 -11 6 -27 4 -19 -3 -35 3 -48 16 -11 11 -23 18 -25 15 -5 -4 -272 98 -342
132 -16 7 -51 21 -77 29 -26 9 -56 20 -65 26 -16 9 -122 51 -213 85 -19 7 -36
18 -38 24 -2 6 -14 8 -27 5 -12 -3 -26 -1 -29 5 -4 6 -15 11 -25 11 -32 0
-121 42 -121 57 0 11 -7 13 -25 9 -29 -7 -119 19 -136 40 -7 8 -21 11 -35 8
-15 -4 -24 -2 -24 5 0 6 -7 11 -16 11 -35 0 -350 114 -368 133 -13 13 -21 16
-24 9 -5 -17 -32 -15 -32 2 0 10 -10 14 -32 13 -53 -1 -392 107 -396 126 -4
18 -22 24 -22 7 0 -14 -27 -12 -41 3 -7 7 -25 11 -41 9 -19 -3 -30 1 -34 12
-4 11 -13 14 -29 10 -14 -4 -26 0 -32 8 -11 20 -41 29 -46 15 -3 -9 -8 -9 -18
1 -7 6 -26 12 -41 12 -16 0 -31 7 -34 15 -4 10 -14 13 -28 9 -27 -6 -75 11
-92 34 -10 12 -13 13 -14 3 0 -10 -9 -12 -32 -7 -18 4 -48 9 -65 13 -20 3 -33
11 -33 20 0 10 -6 12 -20 8 -27 -8 -121 15 -127 32 -3 8 -14 11 -29 7 -32 -8
-124 16 -124 33 0 16 -17 17 -22 2 -6 -18 -120 12 -126 34 -5 19 -18 23 -24 6
-6 -17 -68 -1 -68 17 0 16 -26 19 -35 4 -9 -15 -45 -12 -51 4 -7 17 -42 28
-46 14 -3 -7 -15 -7 -38 0 -19 6 -73 18 -120 27 -174 34 -220 47 -220 61 0 8
-7 14 -15 14 -8 0 -15 -5 -15 -11 0 -15 -52 -2 -66 17 -14 17 -41 18 -46 2 -4
-10 -10 -10 -32 0 -15 6 -24 17 -21 22 3 6 -5 10 -19 10 -13 0 -26 -5 -28 -11
-5 -16 -48 -1 -48 17 0 16 -36 19 -45 4 -9 -14 -31 -12 -47 3 -16 17 -66 27
-70 16 -4 -13 -131 12 -144 28 -13 15 -31 17 -36 3 -2 -6 -36 -3 -88 6 -47 9
-113 19 -147 24 -67 9 -86 16 -78 31 9 13 -49 11 -62 -2 -12 -12 -53 4 -53 21
0 14 -58 12 -62 -1 -6 -17 -68 -1 -68 17 0 17 -70 20 -87 3 -7 -7 -21 -6 -48
5 -23 10 -51 14 -74 10 -28 -4 -42 -2 -55 11 -14 14 -28 16 -75 11 -48 -6 -62
-4 -76 10 -13 14 -21 15 -35 6 -22 -14 -150 3 -162 21 -6 9 -12 9 -26 0 -25
-15 -103 -6 -119 14 -10 13 -26 14 -87 8 -66 -6 -76 -5 -76 9 0 11 -9 16 -30
16 -16 0 -30 -5 -30 -11 0 -17 -152 -1 -166 17 -13 16 -120 20 -126 5 -5 -15
-88 -1 -88 15 0 17 -145 20 -155 4 -7 -12 -93 -3 -110 11 -13 10 -179 14 -194
4 -7 -4 -42 -4 -78 0 -52 5 -66 11 -70 26 -7 25 -83 28 -83 4 0 -10 -10 -15
-30 -15 -18 0 -33 6 -36 15 -9 22 -94 21 -94 -2 0 -14 -16 -15 -167 -9 -93 4
-169 11 -171 17 -6 14 -919 12 -924 -3 -3 -8 -50 -13 -151 -16 -131 -4 -147
-3 -147 12 0 14 -14 16 -99 16 -87 0 -99 -2 -103 -18z m-1743 -5018 c20 -5 20
-12 17 -610 -1 -346 1 -603 6 -600 5 3 12 -115 16 -267 6 -269 6 -536 -1
-2279 -2 -508 1 -898 6 -898 13 0 22 -486 20 -1030 -9 -2070 -9 -2274 3 -2281
10 -7 13 -195 15 -900 1 -490 5 -894 8 -897 10 -11 5 -50 -9 -61 -11 -9 -20
-10 -35 -2 -11 6 -35 13 -52 15 -18 2 -38 12 -46 21 -10 15 -15 16 -27 6 -18
-15 -56 -5 -56 15 0 17 -31 19 -47 3 -8 -8 -17 -8 -31 0 -11 6 -37 11 -57 11
-23 0 -38 5 -42 16 -5 13 -15 15 -49 9 -35 -5 -45 -3 -50 9 -7 17 -39 22 -49
7 -6 -11 -68 4 -73 17 -1 4 -18 6 -37 4 -25 -3 -36 0 -41 12 -7 19 -35 21 -52
4 -13 -13 -62 4 -62 22 0 13 -43 13 -56 0 -12 -12 -64 3 -64 19 0 15 -69 19
-74 4 -7 -16 -36 -5 -36 13 0 17 -41 19 -57 3 -14 -14 -53 -2 -53 17 0 8 -10
14 -25 14 -14 0 -25 -4 -25 -10 0 -15 -33 -12 -58 6 -16 11 -34 14 -62 9 -25
-4 -47 -2 -62 7 -13 7 -45 13 -73 14 -95 2 -295 36 -295 51 0 15 -46 18 -55 4
-7 -13 -77 -2 -90 14 -7 9 -26 11 -58 8 -39 -5 -47 -3 -47 11 0 18 -35 22 -45
5 -8 -13 -66 -2 -80 15 -7 8 -45 13 -113 13 -69 1 -108 6 -119 15 -9 7 -40 13
-70 13 -34 0 -57 5 -62 14 -6 9 -20 11 -49 6 -30 -5 -42 -3 -49 8 -9 16 -61
28 -65 15 -5 -15 -148 14 -148 30 0 10 -13 13 -52 10 -38 -2 -52 0 -50 10 3
15 -44 17 -53 2 -4 -6 -11 -8 -16 -5 -5 3 -34 10 -65 15 -34 6 -61 16 -69 27
-11 14 -15 15 -28 4 -17 -13 -57 -7 -68 12 -4 5 -26 9 -50 9 -54 -1 -355 71
-352 84 1 5 -20 9 -45 10 -38 1 -289 66 -352 91 -16 6 -26 9 -47 11 -7 1 -13
8 -13 15 0 9 -10 12 -30 9 -22 -3 -30 0 -30 11 0 16 -37 30 -42 16 -3 -10
-154 36 -238 73 -30 14 -68 28 -85 32 -36 9 -57 25 -49 37 3 5 -2 6 -11 3 -17
-7 -161 42 -171 57 -3 5 -14 9 -25 9 -10 0 -19 5 -19 10 0 6 -6 10 -14 10 -26
0 -116 43 -116 55 0 8 -8 11 -20 8 -11 -3 -20 0 -20 6 0 6 -7 11 -15 11 -8 0
-23 4 -33 9 -9 5 -44 22 -77 37 -84 38 -137 73 -130 84 6 10 -6 14 -36 11 -9
-1 -41 13 -70 30 -230 139 -390 242 -409 264 -7 8 -16 15 -21 15 -14 0 -204
135 -246 175 -12 12 -45 37 -72 56 -28 18 -51 40 -51 47 0 7 -10 16 -23 21
-40 16 -137 101 -137 122 0 13 -7 19 -21 19 -24 0 -64 34 -239 205 -175 171
-340 357 -340 384 0 6 -6 14 -14 17 -8 3 -33 33 -57 67 -24 34 -46 64 -49 67
-8 6 -53 81 -72 120 -7 14 -15 27 -18 30 -12 10 -67 96 -90 140 -118 229 -208
414 -226 470 -9 25 -24 64 -34 86 -11 23 -22 54 -26 68 -3 14 -10 29 -15 32
-5 3 -9 12 -9 21 0 8 -6 29 -13 46 -32 74 -60 164 -61 192 -1 17 -6 35 -12 40
-7 6 -14 21 -17 35 -3 14 -15 59 -27 100 -11 41 -19 87 -16 103 4 18 1 27 -8
27 -15 0 -42 100 -33 124 3 8 1 16 -5 18 -17 6 -38 98 -31 136 4 25 1 36 -12
46 -12 9 -16 20 -12 35 3 12 -2 35 -11 51 -14 25 -15 33 -4 51 12 18 11 24 -7
40 -13 12 -21 32 -21 52 0 18 -4 47 -10 66 -6 22 -6 40 1 52 7 14 5 23 -11 39
-16 16 -18 25 -10 40 15 28 12 67 -6 74 -14 5 -15 16 -10 65 6 49 4 60 -10 65
-14 5 -15 16 -9 75 6 59 4 69 -10 75 -15 5 -16 15 -10 72 5 50 4 69 -6 75 -8
5 -15 35 -17 78 -4 69 -3 72 31 114 58 70 205 217 216 217 6 0 11 6 11 13 0
18 101 114 125 119 11 2 19 10 18 19 -4 19 105 126 132 131 11 2 21 12 23 23
4 20 127 145 144 145 4 0 8 6 8 13 0 14 99 106 131 121 10 5 19 15 19 21 0 7
10 20 23 28 12 8 37 29 55 46 18 16 38 34 46 38 13 8 82 67 196 168 58 51 108
93 170 142 20 15 44 36 55 46 51 45 145 117 155 117 5 0 10 4 10 9 0 9 106 91
119 91 4 0 16 9 26 20 10 11 26 20 37 20 10 0 18 6 18 13 0 14 104 96 255 202
144 101 153 106 160 95 9 -14 24 -3 35 25 5 12 48 48 97 80 48 32 104 71 124
86 20 16 43 29 52 29 8 0 31 16 51 35 21 19 42 32 47 29 6 -3 17 2 25 12 11
14 17 16 21 6 4 -10 8 -10 19 -1 8 6 14 17 14 23 0 10 31 31 190 133 44 29
123 67 133 65 4 -1 7 2 7 8 0 8 33 29 160 103 119 69 176 97 187 92 8 -2 16 2
19 10 7 17 112 81 229 140 44 22 82 43 83 48 2 4 9 7 16 7 6 0 41 15 76 34
319 166 497 248 520 241 12 -4 24 3 36 18 26 33 263 135 273 118 6 -9 13 -6
27 13 14 18 66 44 183 91 91 36 170 64 177 61 7 -3 15 2 18 10 3 8 11 14 19
14 7 0 31 8 53 19 77 37 193 73 214 66 15 -5 20 -2 20 10 0 13 6 16 25 11 18
-5 25 -2 25 9 0 8 9 15 19 15 11 0 23 5 26 11 4 5 14 9 23 7 10 -2 22 2 27 8
15 17 344 124 350 114 7 -12 38 0 48 18 6 8 18 12 32 8 14 -4 25 -1 28 8 3 7
27 19 54 26 26 7 95 27 153 46 131 42 197 56 221 49 11 -4 19 -2 19 4 0 19 40
34 56 20 12 -10 18 -8 30 7 10 13 17 15 20 7 6 -14 34 -5 51 16 9 12 15 13 23
5 9 -9 17 -7 31 7 21 21 44 25 54 9 3 -5 13 -10 21 -10 8 0 13 4 9 9 -8 14 19
25 103 46 44 10 86 15 107 11 28 -6 35 -4 35 9 0 14 7 16 39 10 30 -5 40 -3
44 9 8 21 27 20 28 -1 0 -11 3 -13 6 -5 2 6 15 12 28 12 12 0 26 7 29 16 5 13
15 15 46 10 24 -4 40 -2 40 4 0 9 9 12 100 30 25 5 67 14 94 20 34 8 52 8 59
1 16 -16 38 -13 51 4 14 20 115 36 173 28 36 -5 47 -3 55 10 9 17 45 22 83 11z
m5524 -15724 c41 -6 79 -14 85 -20 5 -5 29 -6 53 -3 33 4 48 2 62 -11 16 -14
30 -16 80 -10 52 6 62 4 67 -11 6 -15 16 -17 69 -11 50 5 65 3 76 -10 10 -13
24 -14 67 -9 44 5 57 3 73 -11 16 -14 24 -16 38 -7 22 14 61 6 78 -16 10 -14
15 -14 34 -3 17 11 34 11 88 2 117 -21 136 -26 134 -38 -2 -7 2 -12 7 -12 6 0
10 5 10 10 0 14 56 13 83 -2 12 -6 43 -10 68 -9 32 2 51 -3 63 -14 12 -12 26
-15 59 -10 34 5 48 3 61 -10 13 -13 27 -16 57 -12 25 3 44 1 52 -7 16 -16 77
-26 77 -13 0 11 54 -1 58 -13 2 -4 21 -6 42 -3 31 4 41 2 46 -11 7 -18 50 -22
56 -5 3 9 13 9 38 2 19 -6 69 -16 110 -23 140 -23 215 -40 218 -49 2 -5 21 -7
42 -4 30 4 41 2 46 -10 5 -13 15 -15 50 -10 35 5 45 2 50 -11 5 -14 15 -16 50
-10 33 5 45 3 49 -8 4 -10 22 -14 58 -14 47 1 78 -4 217 -36 76 -17 80 -19 80
-34 0 -8 5 -14 10 -14 6 0 10 5 10 10 0 15 47 12 63 -4 17 -18 48 -23 66 -12
9 6 18 4 25 -5 6 -8 25 -15 41 -16 33 -2 119 -17 180 -32 22 -5 52 -12 68 -16
15 -3 27 -12 27 -20 0 -18 17 -20 22 -3 5 14 51 4 71 -16 8 -9 24 -12 36 -9
15 4 21 1 21 -11 0 -18 15 -22 25 -6 10 15 22 12 46 -12 15 -16 23 -19 26 -10
6 16 30 15 40 -1 10 -17 41 -29 45 -17 4 13 81 -15 86 -30 3 -9 6 -9 11 -1 11
18 315 -71 319 -93 4 -19 13 -21 29 -5 7 7 17 7 29 1 11 -5 84 -30 164 -57
135 -44 167 -56 245 -89 61 -27 81 -34 139 -52 32 -11 64 -27 70 -36 6 -10 23
-18 37 -18 38 0 419 -180 427 -201 2 -5 12 -9 21 -9 10 0 30 -11 44 -24 14
-13 28 -22 30 -20 6 6 151 -83 259 -159 64 -46 98 -77 103 -94 4 -16 12 -23
23 -21 21 3 137 -87 247 -191 104 -100 328 -344 367 -401 276 -401 428 -634
428 -656 0 -7 4 -14 8 -16 9 -3 122 -193 122 -204 0 -4 11 -22 25 -40 14 -18
25 -35 25 -39 0 -7 43 -93 84 -169 14 -27 26 -56 26 -64 0 -9 8 -25 18 -36 10
-12 25 -37 32 -56 7 -19 26 -63 42 -98 15 -35 28 -66 28 -69 0 -3 10 -27 21
-52 53 -113 68 -149 85 -201 11 -30 22 -57 25 -60 3 -3 9 -16 12 -30 3 -14 26
-83 51 -154 25 -71 46 -144 46 -162 0 -19 6 -34 15 -38 8 -3 15 -15 15 -26 0
-11 4 -28 9 -38 5 -9 19 -53 31 -97 12 -44 25 -89 30 -100 5 -11 14 -45 21
-75 6 -30 18 -75 26 -100 7 -25 16 -72 20 -105 3 -34 12 -63 19 -68 17 -10 18
-74 2 -80 -8 -3 -7 -6 4 -6 18 -1 19 -5 39 -91 6 -30 15 -69 19 -86 4 -17 4
-37 0 -45 -5 -8 -3 -17 7 -24 11 -8 14 -23 11 -51 -3 -25 0 -43 8 -49 8 -5 20
-48 28 -95 8 -47 18 -99 21 -116 6 -25 1 -37 -28 -70 -19 -21 -70 -79 -113
-129 -44 -49 -115 -128 -160 -175 -44 -47 -98 -103 -118 -125 -51 -54 -373
-380 -483 -486 -133 -131 -356 -329 -370 -329 -7 0 -13 -4 -13 -9 0 -10 -176
-165 -245 -215 -40 -30 -138 -112 -185 -154 -14 -13 -48 -39 -76 -58 -28 -19
-71 -52 -95 -73 -43 -37 -150 -114 -190 -137 -11 -6 -30 -21 -44 -34 -16 -15
-30 -20 -44 -15 -16 5 -22 1 -26 -18 -4 -14 -23 -35 -43 -49 -20 -13 -81 -55
-135 -91 -54 -37 -104 -67 -112 -67 -8 0 -15 -6 -15 -13 0 -8 -20 -23 -44 -35
-24 -12 -49 -29 -56 -37 -7 -8 -17 -15 -22 -15 -5 0 -29 -13 -53 -30 -24 -16
-46 -30 -50 -30 -3 0 -27 -16 -52 -35 -25 -19 -52 -35 -59 -35 -7 0 -25 -11
-40 -25 -15 -14 -31 -25 -36 -25 -5 0 -43 -20 -84 -45 -40 -25 -83 -45 -94
-45 -11 0 -20 -6 -20 -13 0 -7 -37 -32 -82 -55 -84 -43 -242 -126 -352 -186
-34 -18 -77 -39 -96 -46 -19 -7 -42 -18 -50 -25 -8 -6 -44 -24 -80 -39 -36
-16 -95 -44 -131 -62 -41 -20 -75 -31 -88 -27 -14 4 -21 1 -21 -9 0 -10 -46
-35 -127 -69 -71 -29 -144 -61 -163 -70 -25 -12 -39 -14 -47 -7 -10 8 -13 6
-13 -5 0 -8 -12 -19 -27 -25 -16 -6 -66 -25 -113 -42 -47 -18 -98 -38 -115
-45 -126 -55 -310 -116 -331 -111 -16 4 -23 2 -22 -5 2 -6 -10 -16 -27 -21
-16 -5 -45 -17 -64 -25 -19 -8 -55 -15 -82 -15 -35 0 -48 -4 -52 -17 -2 -10
-29 -23 -68 -35 -35 -10 -76 -23 -91 -28 -15 -6 -35 -7 -44 -4 -9 4 -21 0 -28
-9 -6 -8 -20 -16 -31 -18 -11 -2 -27 -6 -35 -9 -64 -24 -131 -38 -152 -33 -21
5 -26 2 -31 -17 -5 -18 -9 -20 -19 -10 -14 14 -52 17 -43 3 9 -15 -11 -23
-170 -67 -93 -25 -154 -38 -161 -32 -8 5 -14 3 -18 -7 -3 -8 -14 -15 -25 -15
-11 0 -32 -6 -47 -12 -22 -10 -28 -10 -32 0 -5 17 -22 15 -22 -3 0 -18 -52
-33 -58 -17 -2 7 -8 12 -13 12 -6 0 -7 -5 -4 -10 3 -6 -6 -15 -22 -21 -51 -19
-246 -60 -261 -54 -8 3 -20 -1 -26 -9 -15 -18 -63 -29 -71 -15 -5 7 -11 6 -18
-4 -17 -20 -100 -42 -105 -28 -6 18 -50 13 -54 -6 -4 -20 -116 -46 -134 -32
-8 6 -13 5 -17 -4 -2 -7 -42 -21 -88 -31 -46 -10 -114 -25 -151 -33 -37 -9
-78 -13 -91 -11 -13 2 -29 -2 -36 -10 -9 -9 -24 -12 -43 -8 -19 4 -38 0 -55
-11 -21 -14 -28 -14 -45 -4 -17 11 -23 9 -39 -8 -21 -23 -44 -27 -54 -11 -9
15 -45 12 -45 -4 0 -27 -62 -36 -86 -12 -12 13 -14 684 -16 4870 -3 4850 -3
4856 17 4856 11 0 54 -5 94 -10z"/>
<path d="M6877 38670 c4 -31 2 -41 -11 -46 -14 -5 -16 -15 -10 -50 5 -37 4
-44 -10 -44 -19 0 -20 -13 -4 -40 9 -14 9 -25 1 -42 -6 -13 -23 -53 -38 -90
-15 -38 -31 -68 -35 -68 -5 0 -10 -12 -12 -27 -4 -37 -35 -43 -44 -9 -7 29
-19 34 -28 10 -10 -26 -7 -103 5 -122 9 -15 4 -35 -30 -104 -22 -48 -41 -90
-41 -93 0 -4 -17 -44 -39 -89 -21 -44 -51 -114 -66 -153 -16 -40 -32 -73 -37
-73 -4 0 -8 -8 -8 -18 0 -11 -6 -32 -14 -48 -8 -16 -33 -74 -56 -129 -23 -55
-50 -119 -61 -142 -10 -24 -19 -49 -19 -56 0 -7 -4 -17 -9 -22 -5 -6 -14 -28
-21 -50 -7 -22 -20 -56 -30 -75 -24 -46 -65 -152 -65 -166 0 -6 -5 -22 -12
-35 -6 -13 -19 -44 -28 -69 -9 -25 -22 -58 -30 -75 -26 -62 -148 -403 -210
-590 -14 -44 -30 -89 -35 -100 -5 -11 -18 -49 -29 -85 -20 -64 -37 -116 -52
-155 -4 -11 -17 -54 -29 -95 -12 -41 -33 -107 -46 -147 -13 -39 -24 -78 -24
-87 0 -9 -7 -19 -15 -22 -9 -4 -15 -19 -15 -42 0 -19 -7 -58 -15 -86 -45 -154
-84 -297 -141 -520 -36 -137 -67 -253 -70 -258 -3 -4 -10 -6 -15 -3 -5 4 -9 2
-9 -4 0 -5 5 -13 10 -16 18 -11 11 -47 -10 -52 -16 -4 -18 -8 -9 -19 9 -10 9
-25 1 -57 -6 -23 -13 -54 -17 -69 -3 -16 -10 -28 -15 -28 -5 0 -7 -13 -4 -30
5 -21 2 -31 -8 -35 -12 -5 -14 -17 -11 -49 4 -30 1 -47 -11 -58 -11 -12 -14
-26 -10 -47 5 -25 3 -31 -10 -31 -13 0 -15 -7 -10 -42 6 -33 4 -44 -11 -54
-15 -11 -16 -18 -8 -36 12 -26 -1 -73 -17 -63 -5 3 -10 2 -10 -4 0 -5 5 -13
10 -16 17 -10 11 -44 -11 -66 -16 -16 -18 -23 -8 -35 9 -10 9 -25 0 -58 -6
-25 -11 -57 -11 -71 0 -17 -7 -29 -22 -35 -13 -5 -17 -9 -10 -9 18 -1 16 -100
-3 -107 -11 -5 -13 -16 -8 -50 4 -34 2 -49 -11 -63 -14 -15 -16 -29 -10 -70 5
-42 4 -52 -11 -57 -14 -6 -16 -15 -10 -65 5 -45 4 -60 -7 -64 -10 -4 -14 -35
-15 -130 -2 -119 -13 -172 -34 -160 -5 4 -9 -11 -9 -34 0 -22 4 -42 8 -45 13
-8 1 -77 -14 -83 -17 -6 -18 -37 -3 -61 16 -26 3 -112 -17 -112 -8 0 -14 -9
-14 -20 0 -11 4 -20 9 -20 5 0 11 -8 13 -18 8 -28 -13 -152 -25 -152 -7 0 -8
-34 -4 -103 5 -80 3 -109 -8 -131 -12 -22 -15 -63 -13 -188 2 -100 -1 -161 -7
-166 -16 -11 -14 -1204 2 -1217 14 -11 17 -112 8 -217 -6 -56 -4 -71 10 -85
15 -15 17 -32 12 -120 -2 -57 -1 -103 3 -103 15 0 24 -111 11 -132 -13 -21
-15 -68 -3 -68 14 0 32 -48 32 -85 0 -19 -4 -35 -10 -35 -5 0 -10 -13 -10 -30
0 -19 5 -30 14 -30 17 0 31 -89 16 -104 -15 -15 -12 -56 4 -56 17 0 33 -93 17
-98 -16 -5 -13 -42 3 -42 18 0 34 -112 17 -118 -16 -5 -13 -22 3 -22 17 0 29
-64 29 -155 0 -39 5 -65 15 -74 11 -11 13 -28 8 -67 -5 -41 -3 -53 9 -58 17
-6 21 -76 5 -76 -18 0 -10 -18 10 -23 21 -5 29 -51 10 -62 -15 -9 -12 -35 5
-35 20 0 31 -66 14 -87 -9 -10 -9 -14 -2 -10 20 12 35 -31 35 -104 1 -51 5
-69 16 -74 11 -4 13 -16 9 -50 -6 -37 -4 -45 9 -45 14 0 16 -8 12 -45 -4 -36
-2 -45 10 -45 11 0 13 -8 9 -36 -4 -26 -2 -37 9 -41 12 -4 14 -14 10 -38 -5
-24 -2 -34 9 -39 8 -3 15 -14 15 -26 0 -25 20 -109 32 -136 6 -12 7 -31 3 -43
-4 -12 -2 -21 4 -21 6 0 11 -15 11 -34 0 -19 5 -38 11 -42 6 -3 9 -19 5 -34
-4 -20 -1 -30 11 -34 12 -5 14 -15 10 -41 -4 -26 -2 -35 9 -35 8 0 14 -10 14
-23 0 -13 4 -27 9 -33 15 -16 40 -138 34 -166 -4 -21 -1 -28 10 -28 17 0 32
-34 23 -49 -3 -5 0 -14 8 -20 8 -6 17 -33 21 -59 4 -26 11 -53 17 -59 6 -7 8
-24 6 -38 -3 -15 -1 -25 6 -25 7 0 27 -51 46 -112 18 -62 37 -117 40 -123 4
-5 15 -37 24 -70 10 -33 25 -82 36 -110 10 -27 24 -66 31 -85 15 -44 26 -74
38 -102 28 -69 81 -214 81 -224 0 -10 30 -80 50 -116 6 -10 10 -25 10 -33 0
-8 4 -23 9 -33 11 -19 22 -46 80 -187 23 -55 46 -109 51 -120 4 -11 27 -65 51
-120 23 -55 60 -138 81 -185 71 -153 81 -175 89 -195 18 -46 275 -562 349
-700 44 -82 83 -157 86 -165 14 -36 61 -123 120 -221 35 -59 64 -110 64 -113
0 -4 16 -32 35 -62 19 -30 35 -57 35 -59 0 -3 20 -39 45 -79 25 -41 45 -77 45
-80 0 -8 120 -198 137 -216 11 -12 13 -9 13 22 0 20 4 40 10 43 16 10 13 125
-4 125 -8 0 -16 17 -20 46 -9 68 -7 114 4 114 16 0 12 91 -4 104 -18 14 -34
186 -17 186 6 0 11 16 11 36 0 19 -4 33 -9 30 -17 -11 -22 29 -15 142 6 92 4
116 -7 123 -11 7 -13 36 -11 143 2 116 0 135 -14 140 -14 5 -15 22 -9 142 6
117 5 137 -8 147 -12 9 -17 34 -18 104 -2 51 0 96 4 99 4 4 1 14 -6 22 -8 11
-11 54 -10 146 1 75 -2 135 -8 142 -15 18 -24 114 -10 114 7 0 11 23 11 65 0
49 -3 65 -14 65 -18 0 -35 162 -17 168 17 6 15 132 -3 132 -18 0 -34 136 -17
153 13 13 15 111 2 103 -10 -7 -17 28 -27 125 -4 45 -3 69 5 73 15 9 14 53 -1
58 -14 5 -30 130 -17 142 12 13 12 116 0 116 -14 0 -32 120 -21 141 16 28 12
137 -4 146 -15 9 -20 90 -12 213 3 50 1 66 -11 76 -14 9 -15 29 -10 127 3 74
2 117 -5 119 -11 4 -11 36 -2 171 4 72 3 87 -9 87 -19 0 -34 107 -18 123 16
16 15 148 -1 145 -18 -4 -37 154 -20 160 18 6 16 132 -2 132 -18 0 -33 147
-17 163 15 15 14 74 -1 79 -14 5 -30 139 -17 152 5 6 9 33 9 62 0 39 -4 53
-16 58 -15 6 -16 20 -10 128 5 79 4 123 -3 127 -14 9 -29 113 -20 137 15 37
10 134 -7 152 -14 14 -16 33 -10 147 7 116 5 133 -9 145 -15 12 -16 28 -10
122 5 70 4 108 -3 108 -15 0 -25 71 -13 83 16 16 14 158 -1 155 -18 -4 -35
129 -19 154 16 25 15 139 -1 136 -18 -4 -34 140 -19 164 14 22 15 142 1 133
-6 -3 -10 1 -10 10 0 9 5 13 10 10 16 -10 13 248 -2 263 -10 10 -10 15 2 22
10 6 20 4 30 -6 12 -12 12 -18 2 -34 -10 -17 -10 -20 3 -20 21 0 31 -48 15
-74 -9 -14 -10 -21 -1 -24 6 -2 11 -15 11 -28 0 -14 6 -24 14 -24 18 0 29 -59
15 -76 -9 -11 -8 -14 4 -14 11 0 20 -15 27 -42 13 -52 23 -91 51 -187 12 -40
22 -93 23 -117 1 -30 5 -44 15 -44 10 0 12 -8 8 -30 -5 -20 -3 -30 6 -30 16 0
60 -145 52 -170 -4 -14 -2 -20 8 -20 8 0 17 -10 20 -22 7 -32 125 -376 141
-413 8 -16 23 -57 34 -90 11 -33 39 -105 61 -160 23 -54 41 -106 41 -114 0 -8
6 -22 14 -30 12 -14 79 -172 125 -293 9 -25 22 -52 27 -60 5 -7 22 -42 38 -78
15 -36 41 -92 57 -125 16 -34 29 -68 29 -77 0 -10 6 -21 13 -25 7 -4 26 -35
41 -68 16 -33 32 -67 37 -75 22 -38 59 -118 59 -128 0 -6 7 -18 16 -26 19 -20
144 -256 144 -273 0 -7 4 -13 8 -13 4 0 28 -35 52 -77 41 -73 52 -91 98 -160
10 -16 34 -55 52 -88 78 -141 221 -358 432 -655 64 -91 127 -180 140 -198 35
-49 116 -154 136 -177 10 -11 47 -56 83 -100 35 -44 66 -82 69 -85 3 -3 23
-27 45 -55 22 -27 46 -57 53 -65 113 -133 187 -218 241 -276 36 -39 83 -90
103 -115 20 -24 92 -101 160 -170 68 -69 137 -141 154 -160 17 -19 93 -94 170
-167 76 -73 171 -164 209 -201 39 -37 97 -90 130 -118 107 -90 116 -97 173
-150 30 -29 58 -53 62 -53 3 0 24 -16 46 -36 21 -20 69 -60 105 -89 36 -29 83
-69 104 -89 21 -20 40 -36 42 -36 9 0 88 -64 96 -77 4 -7 13 -13 19 -13 6 0
30 -17 53 -37 24 -21 78 -63 120 -93 42 -30 106 -77 143 -105 37 -27 84 -61
104 -75 20 -14 39 -34 42 -46 6 -22 36 -42 36 -23 0 11 38 -12 97 -58 23 -18
44 -33 47 -33 3 0 35 -21 72 -47 111 -80 357 -240 581 -379 34 -22 63 -44 63
-50 0 -19 25 -35 36 -24 7 7 24 1 50 -18 21 -15 68 -43 104 -61 36 -19 66 -38
68 -43 2 -4 8 -8 14 -8 5 0 23 -9 38 -20 15 -11 68 -41 117 -66 48 -26 90 -50
93 -53 3 -3 27 -17 54 -31 26 -13 50 -30 53 -37 3 -7 9 -10 14 -7 5 3 22 -4
38 -15 16 -12 34 -21 40 -21 6 0 11 -4 11 -10 0 -5 6 -10 14 -10 7 0 16 -10
20 -22 5 -19 8 -20 16 -8 14 22 140 -42 140 -72 0 -16 3 -18 14 -9 11 9 27 4
75 -21 33 -18 64 -40 67 -50 6 -19 24 -25 24 -8 0 5 63 -22 140 -61 83 -41
140 -76 140 -85 0 -16 17 -19 22 -4 2 7 24 0 53 -16 28 -14 61 -32 75 -39 14
-7 48 -22 75 -32 35 -14 54 -28 65 -49 14 -27 15 -28 18 -7 2 12 -2 31 -7 42
-15 27 -114 167 -151 213 -17 20 -30 39 -30 42 0 3 -12 23 -27 44 -16 22 -60
86 -100 143 -40 57 -76 109 -81 114 -5 6 -57 83 -115 170 -59 88 -148 221
-199 296 -126 185 -275 407 -322 482 -22 34 -96 147 -165 250 -69 103 -130
196 -136 205 -5 9 -31 50 -57 90 -27 41 -48 76 -48 78 0 3 -22 37 -48 77 -44
65 -148 231 -176 282 -13 22 -46 74 -112 177 -24 37 -44 70 -44 74 0 4 -6 15
-14 23 -7 9 -24 36 -37 61 -13 25 -36 61 -51 81 -16 20 -28 39 -28 43 0 3 -25
44 -55 90 -30 46 -55 86 -55 89 0 3 -14 27 -31 52 -24 36 -29 52 -24 75 6 29
-9 44 -17 18 -3 -7 -17 10 -33 37 -15 28 -40 68 -54 90 -14 22 -33 54 -41 70
-8 17 -32 57 -53 89 -21 33 -55 91 -76 130 -20 39 -48 89 -62 111 -14 22 -42
69 -61 105 -20 36 -45 81 -57 100 -12 19 -28 49 -36 65 -8 17 -29 53 -45 80
-17 28 -42 74 -56 103 -14 28 -30 52 -35 52 -5 0 -9 6 -9 14 0 7 -30 67 -67
132 -36 66 -85 155 -108 199 -23 44 -56 103 -73 131 -68 109 -31 99 108 -28
13 -13 47 -41 75 -63 27 -22 63 -52 79 -65 66 -58 103 -87 129 -103 15 -10 32
-29 37 -43 6 -14 15 -22 20 -19 9 6 43 -16 135 -88 5 -4 75 -58 155 -120 80
-62 175 -132 213 -157 42 -27 67 -51 67 -62 0 -17 10 -22 38 -19 8 1 41 -18
75 -44 58 -43 136 -97 175 -120 34 -21 167 -110 172 -116 3 -3 24 -16 48 -29
23 -13 42 -27 42 -31 0 -4 8 -9 18 -13 9 -3 31 -15 47 -26 17 -10 42 -26 58
-35 15 -9 27 -20 27 -25 0 -6 8 -10 18 -10 11 0 27 -9 37 -20 10 -11 24 -20
32 -20 7 0 16 -7 19 -15 4 -8 14 -15 24 -15 10 0 23 -7 30 -15 7 -8 17 -15 23
-15 5 0 24 -11 41 -23 17 -13 54 -36 81 -52 129 -71 185 -107 185 -118 0 -16
37 -39 45 -27 7 12 115 -51 115 -69 0 -11 3 -11 15 -1 13 10 19 10 33 -3 27
-24 203 -120 506 -276 63 -32 111 -63 114 -73 5 -20 17 -23 26 -9 4 5 38 -8
77 -30 40 -21 77 -39 83 -39 6 0 22 -9 36 -20 14 -11 31 -20 37 -20 7 0 34
-11 60 -25 77 -41 281 -135 293 -135 5 0 10 -9 10 -21 0 -16 4 -19 20 -14 11
3 34 -1 52 -9 18 -8 78 -35 133 -59 55 -24 119 -52 143 -62 23 -10 42 -23 42
-28 0 -4 4 -6 10 -2 5 3 17 1 27 -4 10 -5 38 -18 63 -29 107 -46 216 -91 233
-96 9 -3 17 -12 17 -20 0 -9 7 -12 19 -9 26 7 84 -24 74 -40 -4 -8 -2 -8 9 1
12 9 22 10 35 3 10 -5 54 -23 98 -40 73 -27 138 -52 220 -87 17 -6 50 -19 75
-27 79 -27 140 -56 140 -67 0 -7 8 -9 20 -5 20 6 80 -19 80 -34 0 -5 9 -7 19
-4 11 3 46 -5 78 -16 32 -12 99 -36 148 -53 50 -16 97 -37 106 -44 8 -8 24
-14 34 -14 36 0 365 -117 365 -130 0 -4 11 -5 25 -2 19 3 25 0 25 -13 0 -13 6
-16 25 -11 33 8 155 -32 155 -52 0 -11 3 -12 14 -3 16 14 81 -10 110 -42 13
-13 21 -16 24 -9 5 16 21 15 87 -5 32 -10 55 -23 55 -31 0 -10 8 -12 29 -7 17
3 32 2 36 -4 3 -6 14 -11 23 -11 20 0 190 -48 214 -61 10 -5 24 -9 31 -9 8 0
25 -9 38 -21 13 -11 25 -16 27 -10 6 17 32 13 32 -4 0 -18 21 -20 37 -4 8 8
16 6 31 -9 13 -13 28 -18 46 -15 19 4 26 1 26 -9 0 -10 7 -14 23 -11 23 5 136
-22 216 -51 24 -9 52 -16 62 -16 10 0 24 -6 31 -13 6 -8 22 -12 35 -9 15 3 25
-1 29 -12 5 -13 14 -15 35 -11 23 5 29 3 29 -11 0 -14 6 -16 36 -11 25 4 37 2
40 -8 4 -9 15 -12 32 -9 33 7 108 -18 105 -34 -4 -18 14 -15 21 4 11 28 6 44
-12 44 -9 0 -23 9 -30 21 -8 12 -19 18 -28 15 -17 -7 -119 57 -134 83 -6 13
-17 17 -30 14 -11 -3 -20 0 -20 6 0 6 -5 11 -11 11 -6 0 -29 14 -52 32 -22 18
-56 41 -76 51 -48 26 -94 65 -103 88 -4 11 -13 16 -22 13 -8 -3 -44 14 -81 41
-37 25 -74 49 -83 53 -10 3 -22 11 -29 16 -34 30 -43 36 -51 36 -5 0 -17 9
-27 20 -10 11 -23 20 -28 20 -13 0 -96 67 -123 98 -11 14 -27 23 -34 20 -14
-4 -23 0 -58 32 -10 8 -28 21 -42 28 -65 34 -80 44 -80 53 0 5 -4 9 -9 9 -10
0 -293 191 -324 218 -10 9 -33 25 -51 37 -87 54 -166 109 -166 117 0 4 -5 8
-10 8 -6 0 -59 35 -118 78 -138 99 -153 110 -257 182 -16 12 -86 62 -155 113
-69 50 -133 96 -142 102 -48 29 -322 237 -326 247 -2 4 -8 8 -13 8 -6 0 -73
48 -150 106 -77 58 -147 108 -155 111 -8 3 -14 14 -14 24 0 13 -7 19 -21 19
-12 0 -42 17 -67 38 -25 20 -56 44 -68 52 -20 13 -53 40 -224 175 -25 20 -89
70 -142 111 -54 41 -98 80 -98 85 0 5 -5 9 -10 9 -10 0 -95 66 -244 188 -37
32 -95 78 -128 104 -54 43 -144 117 -172 144 -11 10 -50 44 -246 208 -52 44
-104 89 -115 100 -11 12 -43 40 -72 64 -28 23 -53 52 -55 64 -2 14 -13 24 -30
29 -36 9 -112 74 -118 101 -3 13 -17 25 -33 29 -33 9 -69 41 -401 352 -65 62
-155 146 -199 187 -95 88 -610 606 -682 686 -27 30 -80 86 -116 123 -37 38
-70 78 -74 90 -3 11 -12 21 -18 21 -20 0 -271 278 -283 313 -7 19 -19 32 -29
32 -15 0 -115 101 -115 117 0 4 -19 27 -42 52 -69 71 -162 176 -178 201 -8 12
-23 30 -32 39 -10 10 -18 24 -18 31 0 8 -6 12 -12 10 -7 -2 -30 20 -51 49 -21
29 -69 90 -107 135 -39 45 -70 91 -70 102 0 11 -7 19 -17 19 -10 0 -28 15 -41
33 -12 17 -39 53 -60 78 -78 97 -132 170 -132 179 0 6 -4 10 -9 10 -11 0 -101
115 -101 129 0 6 -6 11 -12 12 -14 0 -108 122 -108 139 0 5 -4 10 -8 10 -7 0
-54 57 -107 130 -58 81 -143 197 -167 229 -15 20 -52 72 -83 116 -31 44 -72
103 -93 131 -43 60 -212 302 -227 326 -5 9 -47 70 -93 135 -78 111 -154 224
-177 261 -6 9 -46 71 -89 137 -150 227 -223 340 -306 475 -87 142 -136 218
-180 285 -14 22 -29 47 -33 55 -4 8 -16 29 -27 45 -11 17 -23 37 -27 45 -4 8
-21 38 -39 66 -18 28 -42 68 -54 90 -49 86 -174 301 -195 334 -13 19 -44 73
-71 120 -26 47 -58 99 -71 117 -12 17 -23 36 -23 42 0 10 -141 261 -164 291
-14 19 -30 47 -75 134 -20 39 -49 90 -64 113 -15 24 -27 48 -27 56 0 7 -8 23
-17 37 -16 23 -80 138 -105 190 -7 14 -20 36 -29 50 -39 60 -89 162 -89 185 0
13 -8 29 -17 34 -10 5 -46 65 -81 133 -35 67 -99 191 -142 273 -126 239 -159
311 -153 334 3 12 1 21 -6 21 -6 0 -11 11 -11 24 0 14 -5 28 -11 32 -6 3 -9
19 -5 35 4 21 2 29 -8 29 -8 0 -16 10 -19 23 -3 12 -14 49 -26 82 -11 33 -39
121 -62 195 -22 74 -45 144 -49 155 -24 60 -40 113 -40 130 0 10 -10 38 -21
62 -12 25 -25 59 -30 76 -14 56 -70 221 -85 250 -8 16 -14 35 -14 42 0 18 -27
104 -40 127 -6 10 -10 26 -10 36 0 10 -4 22 -9 27 -5 6 -23 54 -40 108 -17 53
-35 105 -40 115 -12 20 -56 162 -56 179 0 6 -4 15 -8 19 -4 4 -7 17 -7 30 0
12 -5 24 -10 26 -6 2 -12 14 -14 28 -3 30 -14 61 -52 145 -17 40 -90 244 -121
340 -8 28 -21 64 -28 80 -7 17 -25 64 -40 105 -26 74 -31 87 -54 145 -7 16
-22 56 -33 90 -19 55 -32 74 -50 75 -3 0 -4 -18 -1 -40z"/>
<path d="M34390 38541 c0 -5 6 -14 14 -20 8 -7 22 -27 31 -46 9 -19 19 -35 23
-35 4 0 16 -17 27 -37 11 -21 22 -40 25 -43 3 -3 46 -66 94 -140 49 -74 101
-154 117 -178 16 -23 29 -52 29 -63 0 -11 4 -18 9 -14 8 5 33 -30 150 -210 14
-22 29 -42 32 -45 3 -3 9 -12 13 -20 8 -16 38 -65 73 -121 25 -38 23 -35 93
-137 27 -41 50 -77 50 -81 0 -5 14 -27 30 -49 17 -23 30 -45 30 -49 0 -5 23
-42 50 -83 27 -41 50 -85 50 -97 0 -13 6 -23 13 -23 14 0 34 -28 132 -190 32
-52 78 -125 102 -162 24 -37 43 -70 43 -73 0 -4 15 -30 34 -58 59 -90 136
-224 136 -235 0 -6 6 -17 13 -24 15 -16 60 -89 150 -243 38 -66 78 -132 88
-147 11 -15 19 -30 19 -33 0 -3 20 -38 43 -78 51 -84 162 -278 204 -357 16
-30 40 -73 53 -95 13 -22 41 -74 63 -115 22 -41 47 -86 56 -100 9 -14 30 -50
45 -80 16 -30 33 -60 38 -66 5 -7 27 -47 50 -90 23 -44 54 -104 70 -134 54
-102 124 -235 145 -275 12 -22 24 -47 27 -55 5 -13 59 -117 130 -250 10 -19
22 -42 27 -50 4 -8 40 -78 79 -155 39 -77 75 -147 80 -155 24 -41 130 -272
130 -285 0 -8 4 -15 10 -15 15 0 52 -92 41 -103 -13 -13 -41 9 -41 32 0 23
-19 41 -36 34 -10 -3 -16 5 -20 26 -5 23 -11 30 -22 26 -19 -7 -220 178 -224
208 -2 15 -11 23 -27 25 -14 2 -33 15 -44 29 -11 14 -39 39 -62 57 -23 17 -78
63 -122 101 -43 39 -103 90 -133 115 -29 25 -76 65 -103 90 -27 25 -67 58 -88
73 -22 16 -39 33 -39 38 0 5 -5 9 -11 9 -10 0 -105 72 -154 117 -11 10 -44 36
-72 58 -29 21 -53 43 -53 47 0 4 -5 8 -11 8 -6 0 -41 23 -77 51 -85 64 -268
198 -369 269 -43 30 -79 58 -81 62 -2 5 -9 8 -16 8 -7 0 -23 11 -36 25 -13 14
-30 25 -38 25 -9 0 -23 7 -32 15 -33 30 -394 265 -407 265 -7 0 -13 5 -13 10
0 6 -8 14 -18 18 -23 9 -136 74 -142 82 -3 3 -31 21 -62 39 -31 19 -59 44 -62
55 -5 17 -8 18 -15 7 -7 -11 -15 -10 -42 10 -19 12 -36 26 -39 30 -3 3 -22 12
-42 18 -21 7 -50 25 -66 40 -16 15 -34 25 -39 24 -6 -2 -39 14 -74 35 -55 34
-107 63 -190 107 -11 5 -19 13 -19 17 0 5 -6 8 -14 8 -12 0 -51 19 -141 70
-22 12 -45 26 -51 31 -6 5 -14 6 -17 2 -4 -3 -15 0 -24 8 -21 16 -27 19 -148
83 -49 26 -98 57 -107 68 -10 11 -18 15 -18 9 0 -6 -4 -11 -10 -11 -5 0 -10 7
-10 15 0 8 -6 12 -13 9 -8 -3 -68 21 -133 54 -66 32 -129 61 -139 65 -11 4
-27 11 -35 17 -8 5 -49 25 -90 44 -41 18 -120 54 -175 79 -142 64 -201 90
-275 122 -36 15 -82 36 -103 46 -22 10 -45 19 -52 19 -7 0 -16 7 -19 16 -4 9
-13 14 -21 10 -9 -3 -23 -2 -33 3 -9 5 -28 14 -42 20 -14 6 -32 15 -40 20 -8
5 -41 17 -74 28 -32 10 -61 25 -64 33 -9 23 -25 30 -55 24 -15 -3 -33 -1 -40
4 -7 5 -39 19 -72 31 -33 13 -64 26 -70 30 -5 4 -39 16 -74 27 -42 12 -66 25
-69 37 -3 13 -8 15 -17 7 -13 -11 -85 13 -85 29 0 4 -12 8 -27 8 -45 0 -278
88 -281 107 -4 17 -18 22 -24 7 -5 -15 -238 69 -238 85 0 17 -12 18 -27 3 -7
-7 -20 -6 -44 5 -19 8 -49 20 -66 26 -18 7 -33 19 -33 26 0 17 -17 19 -22 3
-2 -7 -29 -2 -78 14 -41 13 -109 35 -150 47 -41 12 -113 35 -160 51 -47 16
-94 29 -104 29 -10 0 -20 9 -23 20 -6 21 -28 27 -38 10 -8 -13 -35 -1 -35 17
0 13 -3 13 -16 2 -14 -11 -18 -10 -29 5 -9 12 -20 16 -35 11 -11 -4 -26 -2
-33 3 -7 5 -27 12 -45 15 -77 15 -142 39 -142 53 0 16 -21 19 -36 4 -14 -14
-44 -2 -44 17 0 11 -7 13 -30 8 -23 -5 -30 -3 -30 9 0 9 -7 16 -15 16 -8 0
-15 -4 -15 -10 0 -15 -30 -12 -36 4 -3 8 -12 12 -20 9 -8 -3 -28 0 -45 7 -32
14 -48 9 -27 -9 57 -47 152 -111 164 -111 7 0 14 -4 14 -8 0 -8 125 -102 136
-102 14 0 101 -74 115 -98 9 -16 24 -26 35 -25 17 1 115 -62 122 -79 2 -5 8
-8 14 -8 6 0 27 -13 48 -30 21 -16 41 -30 45 -30 4 0 22 -12 40 -27 18 -16 57
-45 87 -66 29 -21 88 -63 131 -94 43 -30 83 -67 88 -80 6 -17 14 -23 25 -19
18 7 123 -62 124 -81 0 -7 7 -13 15 -13 8 0 97 -62 196 -137 241 -184 252
-192 269 -199 14 -7 59 -43 116 -95 12 -10 25 -19 29 -19 6 0 95 -67 135 -102
9 -8 33 -27 55 -43 22 -17 47 -37 56 -45 8 -8 51 -41 93 -74 50 -37 82 -69 88
-88 7 -20 13 -26 18 -18 9 15 16 11 93 -49 36 -27 56 -50 52 -58 -3 -10 1 -13
13 -9 15 5 136 -87 277 -211 38 -34 169 -140 217 -176 21 -15 66 -55 100 -87
35 -33 78 -70 96 -83 18 -12 35 -32 38 -44 4 -13 11 -24 18 -24 6 -1 16 -2 21
-3 12 -1 193 -156 278 -238 32 -31 60 -56 63 -55 2 1 36 -28 76 -64 40 -36
100 -90 133 -119 87 -76 165 -157 165 -169 0 -6 6 -11 13 -11 6 0 38 -24 70
-53 217 -194 985 -965 1161 -1166 26 -29 58 -63 70 -75 22 -21 177 -190 232
-254 63 -72 132 -153 199 -231 39 -45 95 -109 125 -142 30 -33 64 -74 75 -92
11 -18 29 -42 40 -53 11 -12 40 -45 65 -74 25 -30 63 -75 85 -101 22 -26 48
-57 58 -70 33 -45 62 -82 93 -118 17 -20 56 -70 87 -111 32 -41 84 -109 117
-150 33 -41 60 -83 60 -93 0 -11 9 -21 20 -24 11 -3 20 -8 20 -12 0 -3 16 -24
35 -46 19 -22 38 -50 41 -62 3 -13 12 -23 20 -23 8 0 14 -3 14 -8 0 -6 32 -53
88 -127 4 -6 22 -30 40 -55 18 -25 64 -86 101 -137 38 -50 71 -103 75 -117 3
-14 12 -26 19 -26 6 0 41 -44 77 -97 36 -53 77 -110 93 -127 15 -17 27 -36 27
-42 0 -6 7 -17 15 -24 14 -12 376 -552 388 -580 4 -8 22 -35 41 -60 40 -51
106 -158 106 -169 0 -4 9 -16 20 -26 11 -10 20 -22 20 -26 0 -5 23 -43 50 -85
28 -42 50 -85 50 -95 0 -11 6 -19 13 -19 6 0 26 -24 43 -53 17 -28 60 -98 95
-155 35 -56 73 -118 84 -137 74 -126 88 -151 94 -155 10 -8 131 -218 131 -228
0 -5 9 -17 20 -27 11 -10 20 -22 20 -27 0 -5 25 -50 55 -100 30 -50 55 -94 55
-98 0 -4 9 -19 20 -32 11 -14 36 -57 55 -94 20 -38 45 -82 55 -99 10 -16 19
-37 19 -46 1 -9 10 -24 21 -34 11 -10 20 -22 20 -26 0 -5 14 -32 32 -61 52
-87 208 -370 208 -377 0 -3 17 -36 39 -72 21 -36 75 -138 121 -225 45 -87 100
-192 121 -232 22 -39 39 -79 39 -87 0 -8 4 -15 9 -15 4 0 22 -26 38 -57 17
-32 49 -93 72 -137 22 -43 41 -89 41 -101 0 -13 6 -25 14 -28 13 -5 29 -33
112 -199 13 -27 24 -59 24 -72 0 -13 7 -27 15 -30 9 -3 23 -20 31 -38 8 -18
18 -40 23 -48 5 -8 29 -55 52 -105 23 -49 46 -97 51 -105 5 -8 15 -28 23 -45
9 -16 19 -37 24 -45 29 -46 81 -168 81 -188 0 -12 7 -25 15 -28 15 -6 135
-244 135 -269 0 -7 4 -16 8 -19 13 -8 212 -417 212 -436 0 -4 16 -38 35 -74
19 -37 35 -74 35 -83 0 -8 6 -21 14 -27 8 -6 28 -42 44 -81 16 -38 45 -104 65
-145 49 -105 67 -156 67 -190 0 -16 5 -32 11 -36 6 -3 9 -19 7 -35 -3 -19 0
-29 8 -29 7 0 20 -26 29 -57 10 -32 23 -76 30 -98 73 -220 109 -343 107 -359
-1 -11 2 -22 7 -25 5 -3 23 -51 41 -106 17 -55 36 -111 42 -125 22 -49 50
-156 51 -192 1 -22 6 -38 13 -38 6 0 17 -21 25 -47 7 -27 19 -59 26 -73 7 -14
16 -42 19 -62 4 -21 13 -43 20 -49 8 -6 14 -19 14 -28 0 -9 9 -41 20 -71 11
-30 20 -65 20 -78 0 -12 6 -33 14 -45 8 -12 30 -71 50 -132 21 -60 41 -119 46
-130 5 -11 19 -48 31 -82 21 -56 25 -60 39 -46 10 11 14 30 12 58 -3 28 1 47
12 57 11 11 13 26 9 53 -5 29 -2 40 11 47 14 8 16 18 10 55 -6 39 -4 45 11 41
10 -1 22 -19 29 -38 19 -61 20 -59 91 105 52 120 75 172 111 252 13 28 24 56
24 61 0 5 7 15 15 22 8 7 15 20 15 29 0 9 14 43 30 76 16 33 30 64 30 70 0 13
71 178 81 190 5 5 9 15 9 22 0 7 13 41 29 75 15 35 38 88 50 118 22 55 30 73
70 162 12 26 21 53 21 59 0 6 13 39 29 73 16 33 34 79 41 101 7 22 19 50 27
63 7 12 11 27 7 33 -3 6 1 18 9 27 8 9 23 43 32 76 9 32 28 84 42 115 14 31
37 88 50 126 75 209 92 262 93 278 0 10 6 20 14 23 8 3 14 15 14 27 -1 35 56
187 70 187 7 0 12 14 12 38 0 56 84 306 104 310 13 3 14 7 6 17 -7 8 -7 21 -1
36 5 13 14 42 20 64 26 96 53 175 62 181 5 3 6 16 3 29 -3 12 -1 26 5 29 6 4
11 24 11 46 0 34 2 38 23 33 18 -5 20 -3 10 8 -20 20 -15 50 7 56 23 6 23 8
10 33 -7 13 -6 21 5 30 11 9 12 17 4 32 -8 15 -7 24 4 36 8 9 17 33 20 52 15
81 46 172 66 189 23 20 28 57 9 63 -9 3 -7 20 6 64 10 32 20 70 23 84 11 63
14 70 28 70 18 0 19 14 3 41 -11 17 -10 22 2 32 8 7 16 30 16 52 3 64 13 109
28 120 9 7 12 21 9 39 -4 21 -1 33 11 42 11 7 13 15 7 18 -14 9 -2 68 15 82 9
8 12 22 8 43 -5 24 -3 31 10 31 18 0 21 21 5 37 -14 14 -1 63 17 63 17 0 18
22 3 37 -16 16 -2 63 19 64 10 0 12 3 5 6 -8 2 -13 22 -13 45 0 31 4 41 20 45
22 6 27 28 9 39 -7 4 -9 21 -5 43 20 116 28 167 40 261 10 70 20 108 30 116
18 12 21 35 7 50 -12 12 3 107 18 112 9 3 9 7 1 17 -15 18 -2 105 16 112 17 6
18 45 3 60 -14 14 3 99 19 96 7 -2 12 8 12 22 0 14 -4 25 -10 25 -5 0 -10 13
-10 29 0 49 12 91 26 91 10 0 14 15 14 55 0 32 -4 55 -11 55 -11 0 -2 89 11
103 3 4 5 55 2 112 -4 92 -2 105 12 111 15 6 16 21 10 151 -7 142 -7 144 15
150 20 5 21 11 21 139 0 78 -4 135 -10 139 -6 4 -10 122 -10 320 0 198 4 316
10 320 15 9 13 296 -2 293 -16 -4 -27 65 -28 177 0 50 -4 119 -9 155 -5 36 -6
107 -3 158 4 67 2 96 -7 101 -16 10 -28 151 -12 151 6 0 11 14 11 30 0 19 -5
30 -14 30 -8 0 -17 7 -20 16 -10 25 -7 92 4 99 6 3 10 17 10 31 0 14 -4 23 -9
20 -13 -8 -21 20 -28 91 -4 44 -2 63 6 63 6 0 11 5 11 10 0 6 -5 9 -12 8 -14
-4 -31 65 -17 70 14 5 11 50 -3 55 -9 2 -13 25 -14 63 0 32 -5 70 -11 84 -20
48 -24 68 -13 75 15 9 12 44 -6 62 -12 13 -14 28 -9 68 5 44 3 54 -11 59 -14
5 -16 16 -11 61 4 44 3 55 -9 55 -18 0 -20 76 -2 82 8 3 4 9 -10 17 -23 12
-31 54 -12 66 6 3 10 15 10 26 0 11 -4 18 -9 14 -6 -3 -15 3 -20 14 -14 25
-14 71 -1 71 6 0 10 5 10 11 0 5 -4 7 -10 4 -5 -3 -15 6 -22 20 -9 21 -9 31 1
47 11 18 11 22 -4 30 -13 8 -15 18 -10 48 5 31 3 42 -14 59 -23 23 -28 57 -8
64 9 3 8 8 -4 18 -9 8 -21 41 -28 74 -7 33 -17 77 -23 97 -6 20 -8 47 -5 59 4
15 0 27 -10 34 -9 7 -17 27 -19 46 -1 19 -16 90 -34 159 -17 69 -29 137 -26
152 3 16 0 28 -8 31 -15 6 -49 125 -50 177 -1 22 -8 41 -20 51 -19 16 -19 18
-3 43 15 22 15 26 3 26 -21 0 -31 19 -17 33 17 17 13 34 -9 40 -21 5 -27 31
-10 42 18 11 10 26 -10 20 -16 -5 -20 -2 -20 15 0 12 4 30 10 40 7 14 5 19
-10 23 -13 3 -20 14 -20 29 -1 12 -7 41 -15 63 -8 22 -18 65 -22 95 -3 30 -12
60 -18 65 -7 6 -20 37 -29 70 -18 61 -104 334 -131 415 -8 25 -15 51 -15 59 0
8 -10 34 -21 58 -12 25 -25 59 -30 76 -9 33 -67 199 -88 252 -7 17 -17 50 -23
75 -6 25 -16 56 -23 70 -16 32 -59 141 -78 200 -8 25 -26 71 -40 102 -14 30
-28 71 -32 89 -4 19 -11 39 -15 44 -3 6 -17 37 -30 70 -13 33 -27 64 -32 70
-4 5 -8 19 -8 31 0 13 -4 25 -9 28 -5 3 -16 29 -26 58 -9 29 -31 85 -49 123
-18 39 -41 93 -51 120 -17 48 -52 128 -82 190 -8 17 -30 71 -49 120 -20 50
-40 97 -45 105 -5 8 -12 22 -15 30 -27 65 -125 283 -161 360 -39 82 -67 142
-103 225 -5 11 -45 95 -89 187 -45 91 -81 176 -81 187 0 12 -5 21 -10 21 -6 0
-30 41 -53 90 -23 50 -45 90 -48 90 -22 0 -25 -146 -4 -186 17 -33 21 -174 5
-174 -15 0 -12 -51 4 -64 18 -14 33 -156 17 -156 -18 0 -14 -127 4 -134 13 -5
14 -25 9 -144 -6 -127 -5 -139 11 -145 16 -7 17 -18 10 -128 -5 -88 -4 -123 4
-129 18 -10 35 -134 22 -159 -6 -11 -11 -47 -11 -80 0 -48 3 -61 15 -61 12 0
15 -14 17 -62 0 -35 0 -70 -1 -78 -1 -8 -5 -43 -8 -78 -5 -53 -3 -65 12 -76
16 -12 17 -25 11 -139 -7 -109 -5 -129 10 -152 14 -22 16 -41 10 -137 -5 -75
-4 -113 3 -118 19 -11 26 -127 10 -157 -11 -21 -11 -27 -1 -30 14 -5 17 -73 2
-73 -5 0 -10 -5 -10 -10 0 -6 6 -9 12 -8 18 4 35 -129 19 -154 -16 -25 -15
-139 1 -136 14 3 29 -100 16 -108 -4 -3 -8 -43 -8 -89 0 -67 3 -84 16 -89 14
-5 15 -22 9 -132 -6 -106 -5 -127 8 -137 19 -15 34 -142 18 -152 -17 -10 -14
-126 3 -139 16 -12 20 -95 10 -220 -5 -59 -3 -71 11 -79 16 -8 17 -22 10 -129
-5 -96 -4 -122 7 -129 10 -6 13 -38 13 -126 0 -65 4 -125 10 -133 5 -8 9 -74
8 -150 -1 -74 2 -139 7 -145 14 -17 23 -142 11 -149 -16 -10 -15 -147 1 -144
15 4 31 -103 17 -117 -15 -16 -11 -126 6 -139 16 -12 21 -103 10 -219 -5 -55
-4 -71 8 -80 19 -15 34 -151 18 -161 -17 -11 -14 -136 3 -136 16 0 28 -134 14
-162 -15 -30 -9 -114 8 -129 14 -12 16 -29 10 -121 -6 -94 -5 -111 10 -125 15
-15 16 -33 11 -134 -4 -83 -3 -119 6 -128 8 -8 11 -54 10 -149 -1 -89 2 -141
9 -150 6 -7 11 -37 10 -65 -12 -312 -12 -460 -1 -473 15 -18 3 -457 -12 -462
-5 -2 -9 -43 -9 -90 0 -90 -7 -132 -20 -132 -11 0 -19 73 -9 84 5 5 2 14 -5
20 -18 15 -29 63 -16 71 8 5 7 11 -1 22 -15 17 -32 111 -32 170 0 26 -5 44
-13 47 -16 6 -19 66 -4 66 6 0 10 9 10 19 0 11 -4 23 -10 26 -5 3 -10 14 -10
25 0 10 -7 20 -14 23 -8 3 -18 23 -21 44 -3 21 -10 53 -15 72 -6 22 -5 41 1
53 8 14 6 18 -7 18 -14 0 -16 7 -11 40 4 32 2 40 -10 40 -12 0 -14 8 -10 38 5
31 3 40 -14 50 -15 10 -19 20 -15 37 3 13 1 27 -5 31 -6 3 -9 19 -5 35 3 16 1
29 -4 29 -14 0 -23 41 -11 53 16 16 14 37 -3 37 -8 0 -17 8 -20 18 -32 108
-43 160 -34 175 7 13 5 17 -7 17 -8 0 -15 8 -15 17 0 9 -8 42 -19 72 -10 31
-29 90 -41 131 -12 41 -26 85 -32 96 -6 12 -7 31 -3 43 3 11 2 21 -3 21 -15 0
-46 104 -33 108 14 5 15 32 1 32 -5 0 -10 9 -10 21 0 11 -4 18 -9 14 -11 -6
-46 66 -56 116 -3 19 -10 43 -15 54 -9 21 -38 102 -70 195 -10 30 -30 82 -44
115 -14 33 -26 70 -26 83 0 12 -4 22 -10 22 -5 0 -10 7 -10 15 0 8 -12 41 -27
72 -14 32 -30 69 -36 83 -5 14 -15 39 -22 55 -7 17 -20 50 -30 75 -9 25 -23
57 -31 72 -8 14 -14 36 -14 47 0 12 -4 21 -9 21 -5 0 -14 15 -21 33 -7 17 -29
66 -47 107 -19 41 -41 89 -48 105 -7 17 -27 59 -44 94 -17 35 -31 74 -31 87 0
13 -7 27 -15 31 -14 8 -145 258 -145 277 0 5 -6 17 -14 25 -7 9 -28 43 -46 76
-18 33 -45 83 -61 111 -16 28 -29 57 -29 64 0 7 -6 18 -14 24 -7 6 -33 47 -56
91 -23 44 -50 91 -59 105 -9 14 -21 34 -28 45 -51 85 -105 172 -148 237 -60
91 -156 242 -170 266 -25 42 -94 139 -109 151 -9 7 -16 18 -16 23 0 5 -9 22
-21 36 -17 23 -95 129 -144 197 -93 128 -215 288 -244 320 -20 23 -65 76 -101
119 -36 43 -86 104 -112 135 -26 31 -48 64 -48 74 0 9 -6 17 -13 17 -8 0 -38
27 -68 61 -30 33 -88 97 -129 142 -41 44 -84 92 -95 105 -39 47 -542 552 -550
552 -4 0 -41 34 -82 75 -41 41 -78 75 -83 75 -4 0 -41 32 -81 71 -41 38 -100
91 -131 115 -31 25 -59 52 -62 60 -3 8 -10 14 -16 14 -10 0 -31 16 -104 81
-23 19 -69 57 -103 84 -35 26 -63 54 -63 61 0 8 -7 14 -16 14 -8 0 -46 24 -84
53 -37 28 -80 61 -96 72 -15 11 -47 36 -70 55 -23 19 -71 55 -105 80 -34 25
-98 71 -142 103 -44 32 -86 68 -92 80 -6 12 -17 22 -25 22 -21 1 -70 26 -70
37 0 4 -4 8 -10 8 -27 0 -354 228 -363 253 -6 16 -10 18 -16 8 -7 -11 -15 -9
-40 10 -17 12 -31 26 -31 31 0 4 -7 8 -16 8 -23 0 -94 43 -94 58 0 6 -8 12
-18 12 -24 0 -82 29 -82 41 0 5 -5 9 -10 9 -20 0 -119 73 -125 91 -5 14 -12
18 -31 13 -17 -5 -24 -2 -24 9 0 10 -7 13 -18 10 -10 -2 -24 3 -31 11 -8 9
-19 16 -26 16 -7 0 -16 12 -20 27 -5 20 -9 23 -15 13 -7 -11 -17 -9 -56 11
-25 13 -49 32 -51 42 -3 9 -12 17 -19 17 -8 0 -14 5 -14 11 0 7 -9 9 -23 5
-15 -3 -35 3 -60 19 -20 14 -41 25 -46 25 -6 0 -11 7 -11 16 0 10 -5 14 -16
10 -8 -3 -25 1 -38 9 -33 22 -157 88 -253 135 -53 25 -83 46 -83 56 0 11 -5
14 -16 10 -10 -4 -64 18 -134 54 -125 63 -130 65 -130 51z"/>
</g>
</svg>
